<?php xml version="1.0" standalone="no"?>
<!DOCTYPE svg PUBLIC "-//W3C//DTD SVG 1.1//EN" "http://www.w3.org/Graphics/SVG/1.1/DTD/svg11.dtd">
<svg xmlns="http://www.w3.org/2000/svg">
<metadata>Generated by Fontastic.me</metadata>
<defs>
<font id="finance" horiz-adv-x="512">
<font-face font-family="finance" units-per-em="512" ascent="480" descent="-32"/>
<missing-glyph horiz-adv-x="512" />

<glyph unicode="&#97;" d="M493 238l-474 0c-7 0-12 3-16 7-3 5-4 11-1 17l59 160c3 10 14 17 24 17l337 0c11 0 21-7 25-17l63-160c2-6 2-12-1-16-4-5-9-8-16-8z m0 21l0-10 0 10c0 0 0 0 0 0z m-470 0l465 0-61 156c-1 1-3 3-5 3l-337 0c-1 0-4-2-4-3z m232 19c-23 0-44 9-57 24-11 12-16 27-15 42 3 31 34 55 71 55 37 0 68-24 72-55 2-15-3-29-13-42-14-15-35-24-58-24z m-1 99c-26 0-48-15-50-35-1-9 3-18 9-25 10-11 25-17 42-17 17 0 32 6 42 17 4 5 9 13 8 25-3 20-25 35-51 35z m-124-24c-1-8-11-15-21-15-10 0-16 7-14 15 2 8 12 14 21 14 10 0 16-6 14-14z m284 0c3-8-4-15-14-15-10 0-19 7-21 15-2 8 4 14 14 14 9 0 19-6 21-14z m73-170l-462 0c-6 0-11 5-11 11 0 6 5 11 11 11l462 0c6 0 11-5 11-11 0-6-5-11-11-11z m0-55l-462 0c-6 0-11 5-11 11 0 6 5 10 11 10l462 0c6 0 11-4 11-10 0-6-5-11-11-11z m0-55l-462 0c-6 0-11 5-11 11 0 5 5 10 11 10l462 0c6 0 11-5 11-10 0-6-5-11-11-11z"/>
<glyph unicode="&#98;" d="M491 117l-470 0c-11 0-21 10-21 21l0 236c0 11 10 21 21 21l470 0c11 0 21-10 21-21l0-236c0-11-10-21-21-21z m0 21l0-10z m-470 236l0-236 470 0 0 236z m235-202c-47 0-84 37-84 84 0 47 37 84 84 84 47 0 85-37 85-84 0-47-38-84-85-84z m0 147c-35 0-63-28-63-63 0-35 28-63 63-63 35 0 63 28 63 63 0 35-28 63-63 63z m-146-63c0-12-10-21-21-21-12 0-21 9-21 21 0 11 9 21 21 21 11 0 21-10 21-21z m334 0c0-12-9-21-21-21-11 0-21 9-21 21 0 11 10 21 21 21 12 0 21-10 21-21z"/>
<glyph unicode="&#99;" d="M267 178c-31 0-54 14-65 38l87 0 0 17-93 0c-1 7-2 14-2 22 0 6 0 11 1 16l94 0 0 17-90 0c10 30 36 46 69 46 16 0 30-3 39-8l6 20c-7 4-22 9-45 9-48 0-83-26-95-67l-30 0 0-17 26 0c-1-5-2-11-2-17 0-7 1-15 2-21l-26 0 0-17 31 0c13-38 47-59 88-59 23 0 42 5 51 9l-5 20c-10-5-26-8-41-8z m-11-178c-141 0-256 115-256 256 0 141 115 256 256 256 141 0 256-115 256-256 0-141-115-256-256-256z m0 491c-129 0-235-106-235-235 0-129 106-235 235-235 129 0 235 106 235 235 0 129-106 235-235 235z"/>
<glyph unicode="&#100;" d="M283 1c-6 0-10 5-10 11l0 218c0 6 4 11 10 11l218 0c6 0 11-5 11-11 0-126-103-229-229-229z m11 218l0-196c106 5 191 90 196 196z m-65-166c-126 0-229 103-229 229 0 126 103 229 229 229 126 0 229-103 229-229 0-3-1-6-3-8-2-2-5-3-8-3l-207 0 0-207c0-6-5-11-11-11z m0 436c-115 0-208-93-208-207 0-111 88-202 197-207l0 207c0 6 5 11 11 11l207 0c-6 109-96 196-207 196z"/>
<glyph unicode="&#101;" d="M190 318c0 12-9 23-20 23-11 0-20-11-20-23 0-13 9-23 20-23 11 0 20 10 20 23z m170-280l-51 0c-6 0-11 5-11 11l0 41c-44-11-90-12-136-1l0-40c0-6-5-11-11-11l-51 0c-6 0-11 5-11 11l0 73c0 0 0 1 0 2 0 1 0 2 0 3 0 43-32 79-75 85-4 1-7 4-9 8-3 13-5 26-5 38 0 19 4 38 12 56 2 6 8 8 14 6 7-3 14-4 22-4 31 0 57 25 58 58 1 33-15 65-30 80-3 3-4 7-2 11 1 4 4 6 8 7 0 0 9 2 23 2 25 0 70-6 101-40 6 0 14 1 21 1 126 0 228-79 228-177 0-54-31-103-84-137l0-72c0-6-5-11-11-11z m-41 22l31 0 0 67c0 4 1 7 5 9 50 30 78 74 78 122 0 86-92 156-206 156-9 0-17-1-25-2-3 0-7 1-9 4-26 32-67 37-88 36 13-20 23-48 22-79-1-44-36-79-79-79-7 0-14 1-20 3-4-13-7-26-7-39 0-8 1-17 3-26 51-11 86-55 86-106 0 0 0-1 0-1 0 0 0-1 0-1l0-64 31 0 0 43c0 3 1 6 4 8 3 2 6 3 9 2 51-15 104-14 151 1 4 1 7 1 10-1 3-2 4-6 4-9l0-44z m125 215c-5 0-9 4-10 9-1 6 2 11 8 13 35 6 50 37 50 37 2 6 8 8 14 5 5-2 8-8 5-14-1-1-20-41-65-49-1-1-1-1-2-1z m-110-19l-126 0c-6 0-11 5-11 11 0 6 5 10 11 10l126 0c6 0 11-4 11-10 0-6-5-11-11-11z m-63-63c-6 0-11 5-11 11l0 126c0 6 5 10 11 10 6 0 11-4 11-10l0-126c0-6-5-11-11-11z"/>
<glyph unicode="&#102;" d="M190 318c0 12-9 23-20 23-11 0-20-11-20-23 0-13 9-23 20-23 11 0 20 10 20 23z m170-280l-51 0c-6 0-11 5-11 11l0 41c-44-11-90-12-136-1l0-40c0-6-5-11-11-11l-51 0c-6 0-11 5-11 11l0 73c0 0 0 1 0 2 0 1 0 2 0 3 0 43-32 79-75 85-4 1-7 4-9 8-3 13-5 26-5 38 0 19 4 38 12 56 2 6 8 8 14 6 7-3 14-4 22-4 31 0 57 25 58 58 1 33-15 65-30 80-3 3-4 7-2 11 1 4 4 6 8 7 0 0 10 2 23 2 25 0 70-6 101-40 6 0 14 1 21 1 126 0 228-79 228-177 0-54-31-103-84-137l0-72c0-6-5-11-11-11z m-41 22l30 0 0 67c0 4 2 7 6 9 50 30 78 74 78 122 0 86-92 156-206 156-9 0-17-1-25-2-4 0-7 1-9 4-26 32-67 37-88 36 13-20 23-48 23-79-2-44-37-79-80-79-7 0-14 1-20 3-4-13-7-26-7-39 0-8 1-17 3-26 51-11 86-55 86-106 0 0 0-1 0-1 0 0 0-1 0-1l0-64 31 0 0 43c0 3 1 6 4 8 3 2 6 3 9 2 51-15 104-14 151 1 4 1 7 1 10-1 3-2 4-6 4-9l0-44z m125 215c-5 0-9 4-10 9-1 6 2 11 8 13 35 6 50 37 50 37 2 6 8 8 14 5 5-2 8-8 5-14-1-1-20-41-65-49-1-1-1-1-2-1z m-188-72c-6 0-11 5-11 11l0 84c0 6 5 11 11 11 6 0 10-5 10-11l0-84c0-6-4-11-10-11z m-43 72c-3 0-6 2-8 4-4 4-4 11 1 15l43 37c4 4 10 4 14 0l40-37c4-4 4-11 0-15-4-5-10-5-15-1l-33 31-35-31c-2-2-5-3-7-3z"/>
<glyph unicode="&#103;" d="M182 318c0 12-9 23-20 23-11 0-20-11-20-23 0-13 9-23 20-23 11 0 20 10 20 23z m178-280l-51 0c-6 0-11 5-11 11l0 41c-44-11-90-12-136-1l0-40c0-6-5-11-11-11l-51 0c-6 0-11 5-11 11l0 73c0 1 0 1 0 2 0 1 0 2 0 3 0 42-32 79-75 85-4 1-7 4-9 8-3 13-5 26-5 38 0 19 4 38 12 56 2 6 8 8 14 6 7-3 14-4 22-4 31 0 57 25 58 58 1 33-15 65-30 80-3 3-4 7-2 11 1 4 4 6 8 7 0 0 10 2 23 2 25 0 70-6 101-40 6 0 14 1 21 1 126 0 228-79 228-177 0-54-31-103-84-137l0-72c0-6-5-11-11-11z m-41 22l30 0 0 67c0 4 2 7 6 9 50 30 78 74 78 122 0 86-92 156-206 156-9 0-17-1-25-2-3 0-7 1-9 4-26 32-67 37-88 36 13-20 23-48 23-79-2-44-37-79-80-79-7 0-14 1-20 3-4-13-7-26-7-39 0-8 1-17 3-26 51-11 86-55 86-106 0 0 0-1 0-1 0 0 0-1 0-1l0-64 31 0 0 43c0 3 1 6 4 8 3 2 6 3 9 2 51-15 104-14 151 1 4 1 7 1 10-1 3-2 4-6 4-9z m125 215c-5 0-9 4-10 9-1 6 2 11 8 13 34 6 50 37 50 37 2 6 9 8 14 5 5-2 7-8 5-14-1-1-20-41-65-49-1-1-1-1-2-1z m-188-46c-6 0-11 5-11 11l0 83c0 6 5 11 11 11 6 0 10-5 10-11l0-83c0-6-4-11-10-11z m0-26c-3 0-5 1-7 3l-43 37c-5 4-5 11-1 16 3 4 10 4 15 1l35-31 33 30c5 4 11 4 15 0 4-5 4-11 0-15l-40-38c-2-2-5-3-7-3z"/>
<glyph unicode="&#104;" d="M246 139l0 29c-16 0-33 5-43 13l7 19c10-7 25-13 41-13 20 0 33 12 33 28 0 16-11 25-32 34-29 11-47 24-47 49 0 24 17 42 43 46l0 29 18 0 0-28c17 0 29-5 37-10l-7-19c-6 4-18 10-36 10-22 0-30-13-30-24 0-15 10-23 35-33 29-12 44-26 44-52 0-22-15-43-45-48l0-30-18 0z m10-139c-141 0-256 115-256 256 0 141 115 256 256 256 141 0 256-115 256-256 0-141-115-256-256-256z m0 491c-129 0-235-106-235-235 0-129 106-235 235-235 129 0 235 106 235 235 0 129-106 235-235 235z"/>
<glyph unicode="&#105;" d="M437 115l-27 0c-6 0-11 5-11 11 0 6 5 11 11 11l27 0c29 0 54 24 54 53l0 214c0 29-25 54-54 54l-362 0c-29 0-54-25-54-54l0-214c0-29 25-53 54-53l226 0c6 0 11-5 11-11 0-6-5-11-11-11l-226 0c-41 0-75 34-75 75l0 214c0 41 34 75 75 75l362 0c41 0 75-34 75-75l0-214c0-41-34-75-75-75z m-30 268l-302 0c-6 0-11 5-11 11 0 6 5 11 11 11l302 0c6 0 11-5 11-11 0-6-5-11-11-11z m-210-93l-92 0c-6 0-11 5-11 11 0 6 5 11 11 11l92 0c6 0 11-5 11-11 0-6-5-11-11-11z m0-92l-92 0c-6 0-11 4-11 10 0 6 5 11 11 11l92 0c6 0 11-5 11-11 0-6-5-10-11-10z m148-40c-53 0-97 43-97 96 0 53 44 97 97 97 53 0 97-44 97-97 0-53-44-96-97-96z m0 171c-42 0-75-33-75-75 0-41 33-75 75-75 41 0 75 34 75 75 0 42-34 75-75 75z m-44-296c-2 0-3 0-5 1-3 2-6 6-6 10l0 136c0 6 5 11 11 11 6 0 11-5 11-11l0-115 32 25c4 2 9 2 13 0l34-25 0 117c0 6 4 11 10 11 6 0 11-5 11-11l0-138c0-4-2-8-6-10-3-2-8-1-11 1l-44 33-44-33c-1-1-4-2-6-2z"/>
<glyph unicode="&#106;" d="M11 0c-6 0-10 5-10 11l0 125c0 6 4 11 10 11 6 0 11-5 11-11l0-125c0-6-5-11-11-11z m163 0c-5 0-10 5-10 11l0 204c0 6 5 11 10 11 6 0 11-5 11-11l0-204c0-6-5-11-11-11z m164 0c-6 0-11 5-11 11l0 288c0 6 5 11 11 11 5 0 10-5 10-11l0-288c0-6-5-11-10-11z m163 0c-6 0-11 5-11 11l0 461c0 6 5 11 11 11 6 0 10-5 10-11l0-461c0-6-4-11-10-11z m-436 261c-28 0-46 4-47 4-5 2-9 7-8 13 2 6 7 9 13 8 9-2 209-45 282 190 2 5 8 8 14 7 5-2 8-8 7-14-57-182-190-208-261-208z m288 154c-4 0-8 3-10 7l-26 65-56-29c-5-3-12-1-14 4-3 6-1 12 4 15l67 34c3 1 6 1 9 0 2-1 5-3 6-6l30-75c2-6 0-12-6-14-1 0-2-1-4-1z"/>
<glyph unicode="&#107;" d="M52 190c-28 0-52 24-52 53 0 29 24 52 52 52 29 0 53-23 53-52 0-29-24-53-53-53z m0 84c-17 0-31-14-31-31 0-18 14-32 31-32 18 0 32 14 32 32 0 17-14 31-32 31z m151-270c-29 0-52 24-52 53 0 29 23 52 52 52 29 0 53-23 53-52 0-29-24-53-53-53z m0 84c-17 0-31-14-31-31 0-18 14-32 31-32 18 0 32 14 32 32 0 17-14 31-32 31z m99 315c-29 0-52 23-52 52 0 29 23 53 52 53 14 0 27-6 37-16 10-9 16-23 16-37 0-29-24-52-53-52z m0 84c-17 0-31-14-31-32 0-17 14-31 31-31 17 0 31 14 31 31 0 18-14 32-31 32z m157-321c-28 0-52 23-52 52 0 29 24 53 52 53 29 0 53-24 53-53 0-29-24-52-53-52z m0 83c-17 0-31-14-31-31 0-17 14-31 31-31 18 0 32 14 32 31 0 17-14 31-32 31z m-287-175c-3 0-6 1-8 4l-88 116c-4 5-3 12 2 15 4 4 11 3 14-2l89-116c3-5 3-11-2-15-2-1-4-2-7-2z m52 14c-1 0-1 0-2 0-6 1-10 7-8 13l72 315c1 6 7 9 13 8 6-1 9-7 8-13l-72-315c-2-5-6-8-11-8z m208 151c-4 0-7 2-9 5l-102 164c-3 5-2 11 3 15 5 3 12 1 15-4l102-164c3-5 2-11-3-15-2-1-4-1-6-1z"/>
<glyph unicode="&#108;" d="M256 0c-141 0-256 115-256 256 0 141 115 256 256 256 141 0 256-115 256-256 0-141-115-256-256-256z m0 491c-129 0-235-106-235-235 0-129 106-235 235-235 129 0 235 106 235 235 0 129-106 235-235 235z m6-246l-247 0c-6 0-11 5-11 11 0 6 5 11 11 11l235 0 112 210c3 6 10 7 15 5 5-3 7-10 4-15z m132-202c-3 0-6 1-8 4l-139 199c-3 5-2 12 3 15 5 3 11 2 15-3l138-199c3-4 2-11-3-14-1-2-4-2-6-2z"/>
<glyph unicode="&#109;" d="M256 0c-141 0-256 115-256 256 0 141 115 256 256 256 141 0 256-115 256-256 0-141-115-256-256-256z m0 491c-129 0-235-106-235-235 0-129 106-235 235-235 129 0 235 106 235 235 0 129-106 235-235 235z m0-478c-6 0-11 5-11 11l0 232c0 6 5 11 11 11l230 0c6 0 11-5 11-11 0-6-5-11-11-11l-219 0 0-221c0-6-5-11-11-11z m0 232c-2 0-4 1-6 2-5 4-6 10-3 15l137 190c4 5 10 6 15 2 5-3 6-10 3-14l-137-190c-2-3-6-5-9-5z m0 0c-3 0-6 2-8 4l-160 186c-4 4-4 11 1 15 4 4 11 3 15-1l160-186c4-4 3-11-1-15-2-2-5-3-7-3z"/>
<glyph unicode="&#110;" d="M360 38l-51 0c-6 0-11 5-11 11l0 41c-44-11-90-12-136-1l0-40c0-6-5-11-11-11l-51 0c-6 0-11 5-11 11l0 73c0 1 0 1 0 2 0 1 0 2 0 3 0 42-32 79-75 85-4 1-8 4-9 8-3 13-5 26-5 38 0 19 4 38 12 56 2 6 8 8 14 6 7-3 14-4 22-4 31 0 57 25 58 58 1 33-15 65-30 80-3 3-4 7-2 11 1 4 4 6 8 7 0 0 10 2 23 2 25 0 70-6 101-40 6 0 14 1 21 1 126 0 228-79 228-177 0-54-31-103-84-137l0-72c0-6-5-11-11-11z m-41 22l30 0 0 67c0 4 2 7 6 9 50 30 78 74 78 122 0 86-92 156-206 156-9 0-18-1-25-2-4 0-7 1-9 4-25 32-66 36-88 36 0 0 0 0 0 0 13-20 23-48 23-78-2-45-37-80-80-80-7 0-14 1-20 3-4-13-7-26-7-39 0-8 1-17 3-26 51-11 86-55 86-106 0 0 0 0 0-1 0 0 0-1 0-1l0-64 31 0 0 43c0 3 1 6 4 8 2 2 6 3 9 2 51-15 104-14 151 1 4 1 7 1 10-1 3-2 4-6 4-9l0-44z m-116 270c0-13-10-23-23-23-12 0-22 10-22 23 0 12 10 23 22 23 13 0 23-11 23-23z m241-55c-5 0-9 4-10 9-1 6 2 11 8 13 35 6 50 37 50 37 2 6 8 8 14 5 5-2 8-8 5-14-1-1-20-41-65-49-1-1-1-1-2-1z"/>
<glyph unicode="&#111;" d="M109 349l-32 0c-43 0-77 34-77 76l0 6c0 43 34 77 77 77l358 0c43 0 77-34 77-77l0-6c0-42-34-76-77-76l-27 0c-6 0-10 4-10 10 0 6 4 11 10 11l27 0c31 0 56 25 56 55l0 6c0 31-25 56-56 56l-358 0c-31 0-56-25-56-56l0-6c0-30 25-55 56-55l32 0c6 0 11-5 11-11 0-6-5-10-11-10z m273-345l-252 0c-17 0-32 14-32 32l0 384c0 18 15 32 32 32l252 0c17 0 32-14 32-32l0-384c0-18-15-32-32-32z m-252 427c-6 0-10-5-10-11l0-384c0-6 4-11 10-11l252 0c6 0 10 5 10 11l0 384c0 6-4 11-10 11z m126-147c-46 0-84 38-84 84 0 47 38 84 84 84 23 0 44-8 60-24 16-16 24-37 24-60 0-46-38-84-84-84z m0 147c-35 0-63-28-63-63 0-34 28-63 63-63 35 0 63 29 63 63 0 35-28 63-63 63z"/>
<glyph unicode="&#112;" d="M109 349l-32 0c-43 0-77 34-77 76l0 6c0 43 34 77 77 77l358 0c43 0 77-34 77-77l0-6c0-42-34-76-77-76l-27 0c-6 0-10 4-10 10 0 6 4 11 10 11l27 0c31 0 56 25 56 55l0 6c0 31-25 56-56 56l-358 0c-31 0-56-25-56-56l0-6c0-30 25-55 56-55l32 0c6 0 11-5 11-11 0-6-5-10-11-10z m273-345l-252 0c-17 0-32 14-32 32l0 385c0 17 15 32 32 32l252 0c17 0 32-15 32-32l0-385c0-18-15-32-32-32z m-252 427c-6 0-10-5-10-10l0-385c0-6 4-11 10-11l252 0c6 0 10 5 10 11l0 385c0 5-4 10-10 10z m149-385c-6 0-10 5-10 11l0 339c0 6 4 11 10 11 6 0 11-5 11-11l0-339c0-6-5-11-11-11z"/>
<glyph unicode="&#113;" d="M233 47c-128 0-233 105-233 233 0 129 105 234 233 234 129 0 233-105 233-234 0-5-5-10-11-10l-211 0 0-212c0-6-5-11-11-11z m0 445c-117 0-212-95-212-212 0-113 90-205 201-211l0 211c0 6 5 11 11 11l212 0c-6 112-99 201-212 201z m46-494c-6 0-11 5-11 11l0 223c0 5 5 10 11 10l222 0c6 0 11-5 11-10 0-129-105-234-233-234z m11 223l0-201c108 5 195 93 200 201z m-58 53c-4 0-8 2-10 6l-90 197c-3 5-1 12 5 14 5 2 11 0 14-5l91-197c2-5 0-12-6-14-1-1-3-1-4-1z m3-9c-1 0-3 1-4 1l-210 63c-6 2-9 8-8 13 2 6 8 9 14 8l211-64c5-1 8-7 7-13-2-5-6-8-10-8z m-172-134c-6 0-10 4-10 10l0 187c0 6 4 11 10 11 6 0 11-5 11-11l0-187c0-6-5-10-11-10z m54-48c-6 0-11 5-11 11l0 217c0 6 5 11 11 11 6 0 11-5 11-11l0-217c0-6-5-11-11-11z m54-25c-6 0-11 5-11 10l0 228c0 6 5 11 11 11 6 0 10-5 10-11l0-228c0-5-4-10-10-10z"/>
<glyph unicode="&#114;" d="M501 1l-490 0c-6 0-11 5-11 11l0 488c0 6 5 11 11 11 6 0 10-5 10-11l0-478 480 0c6 0 11-5 11-10 0-6-5-11-11-11z m-311 77l-134 0c-6 0-11 5-11 11 0 6 5 10 11 10l134 0c6 0 10-4 10-10 0-6-4-11-10-11z m214 115l-348 0c-6 0-11 5-11 10 0 6 5 11 11 11l348 0c6 0 11-5 11-11 0-5-5-10-11-10z m-214 115l-134 0c-6 0-11 4-11 10 0 6 5 11 11 11l134 0c6 0 10-5 10-11 0-6-4-10-10-10z m214 114l-348 0c-6 0-11 5-11 11 0 6 5 11 11 11l348 0c6 0 11-5 11-11 0-6-5-11-11-11z"/>
<glyph unicode="&#115;" d="M502 0l-492 0c-6 0-11 5-11 11l0 490c0 6 5 11 11 11 6 0 10-5 10-11l0-480 482 0c6 0 11-4 11-10 0-6-5-11-11-11z m-60 44c-6 0-11 5-11 11l0 134c0 6 5 11 11 11 6 0 11-5 11-11l0-134c0-6-5-11-11-11z m-116 0c-6 0-11 5-11 11l0 349c0 6 5 11 11 11 6 0 10-5 10-11l0-349c0-6-4-11-10-11z m-117 0c-6 0-10 5-10 11l0 134c0 6 4 11 10 11 6 0 11-5 11-11l0-134c0-6-5-11-11-11z m-116 0c-6 0-11 5-11 11l0 349c0 6 5 11 11 11 6 0 10-5 10-11l0-349c0-6-4-11-10-11z"/>
<glyph unicode="&#116;" d="M513 266l-246 0 0 246 12-1c124-10 222-108 233-233z m-225 22l201 0c-14 105-96 187-201 201z m-21-288l0 246 246 0-1-12c-11-125-109-223-233-233z m21 224l0-201c105 14 187 96 201 201z m-42-224l-12 1c-131 11-234 123-234 255 0 132 103 244 234 255l12 1z m-21 489c-115-16-204-116-204-233 0-117 89-217 204-233z"/>
<glyph unicode="&#117;" d="M81 293c0-9-8-17-18-17-9 0-17 8-17 17 0 10 8 18 17 18 10 0 18-8 18-18z m225-142l-306 0 0 285 409 0 0-116c0-6-5-10-11-10-6 0-11 4-11 10l0 94-366 0 0-242 285 0c6 0 10-4 10-10 0-6-4-11-10-11z m-102 30c-53 0-96 51-96 112 0 62 43 112 96 112 54 0 97-50 97-112 0-61-43-112-97-112z m0 203c-41 0-75-41-75-91 0-50 34-90 75-90 42 0 76 40 76 90 0 50-34 91-76 91z m168 67l-347 0c-6 0-11 5-11 11 0 6 5 11 11 11l347 0c6 0 11-5 11-11 0-6-5-11-11-11z m-31 39l-286 0c-6 0-10 5-10 11 0 6 4 11 10 11l286 0c6 0 11-5 11-11 0-6-5-11-11-11z m57-490c-63 0-114 52-114 115 0 63 51 115 114 115 63 0 114-52 114-115 0-63-51-115-114-115z m0 208c-51 0-93-42-93-93 0-51 42-93 93-93 51 0 93 42 93 93 0 51-42 93-93 93z m-60-18c-6 0-11 5-11 11l0 62c0 37 31 68 68 68l6 0c37 0 68-31 68-68 0-6-5-11-11-11-6 0-10 5-10 11 0 25-21 47-47 47l-6 0c-26 0-46-22-46-47l0-62c0-6-5-11-11-11z m90-63c0 17-14 30-30 30-16 0-30-13-30-30 0-13 9-24 20-28l0-42 20 0 0 42c11 4 20 15 20 28z m-230 90l0 19c-11 0-22 3-28 8l4 12c7-4 16-8 27-8 13 0 22 8 22 19 0 10-7 16-21 22-19 7-31 16-31 32 0 16 11 27 28 30l0 19 12 0 0-18c11-1 19-4 24-7l-5-12c-4 2-11 6-23 6-14 0-20-8-20-16 0-9 7-14 23-21 19-8 29-17 29-34 0-15-10-28-29-32l0-19-12 0z"/>
<glyph unicode="&#118;" d="M81 293c0-9-8-17-18-17-9 0-17 8-17 17 0 10 8 18 17 18 10 0 18-8 18-18z m225-142l-306 0 0 285 409 0 0-116c0-6-5-10-11-10-6 0-11 4-11 10l0 94-366 0 0-242 285 0c6 0 10-4 10-10 0-6-4-11-10-11z m-102 30c-53 0-96 51-96 112 0 62 43 112 96 112 54 0 97-50 97-112 0-61-43-112-97-112z m0 203c-41 0-75-41-75-91 0-50 34-90 75-90 42 0 76 40 76 90 0 50-34 91-76 91z m168 67l-347 0c-6 0-11 5-11 11 0 6 5 11 11 11l347 0c6 0 11-5 11-11 0-6-5-11-11-11z m-31 39l-286 0c-6 0-10 5-10 11 0 6 4 11 10 11l286 0c6 0 11-5 11-11 0-6-5-11-11-11z m57-490c-63 0-114 52-114 115 0 63 51 115 114 115 63 0 114-52 114-115 0-63-51-115-114-115z m0 208c-51 0-93-42-93-93 0-51 42-93 93-93 51 0 93 42 93 93 0 51-42 93-93 93z m71-10l-21 0 0 65c0 25-21 47-47 47l-6 0c-26 0-46-22-46-47l0-62-22 0 0 62c0 37 31 68 68 68l6 0c37 0 68-31 68-68z m-41-71c0 17-14 30-30 30-16 0-30-13-30-30 0-13 9-24 20-28l0-42 20 0 0 42c11 4 20 15 20 28z m-230 90l0 19c-11 0-22 3-28 8l4 12c7-4 16-8 27-8 13 0 22 8 22 19 0 10-7 16-21 22-19 7-31 16-31 32 0 16 11 27 28 30l0 19 12 0 0-18c11-1 19-4 24-7l-5-12c-4 2-11 6-23 6-14 0-20-8-20-16 0-9 7-14 23-21 19-8 29-17 29-34 0-15-10-28-29-32l0-19-12 0z"/>
<glyph unicode="&#119;" d="M254 68c-2 0-4 0-6 2l-134 93c-5 3-6 10-3 14 3 5 10 7 15 3l134-93c5-3 6-10 3-15-2-3-6-4-9-4z m-14-68c-3 0-5 1-7 2l-170 122-41 0c-6 0-11 5-11 11 0 6 5 11 11 11l44 0c2 0 4-1 6-2l169-121 177 80c5 2 11 0 14-5 2-6 0-12-6-15l-182-82c-1-1-3-1-4-1z m-19 197c-2 0-4 0-6 1-42 3-72 40-69 81 4 40 40 72 81 68 20-2 38-11 51-26 13-16 20-35 18-55-4-39-36-69-75-69z m0 129c-28 0-51-21-54-49-2-30 20-56 49-58 30-3 56 20 59 49 1 14-4 28-13 39-9 11-22 18-36 19-2 0-4 0-5 0z m205-146c-2 0-4 0-7 0-20 2-38 11-51 26-13 16-19 35-17 55 3 41 40 72 81 69 41-4 72-40 69-82-4-38-37-68-75-68z m0 129c-28 0-51-22-54-50-1-14 3-28 13-39 9-11 22-17 36-19 30-2 56 20 58 49 3 30-19 56-49 58-1 1-3 1-4 1z m-86 53c-3 0-5 0-7 0-20 2-38 11-51 27-13 15-19 34-17 54 3 41 39 72 81 69 20-2 38-11 51-27 13-15 19-35 17-55-3-38-36-68-74-68z m-1 129c-27 0-51-22-53-50-1-14 3-28 12-39 10-11 23-17 37-19 30-2 56 20 58 49 1 15-3 28-12 39-10 11-23 18-37 19-2 1-3 1-5 1z"/>
<glyph unicode="&#120;" d="M501 1l-490 0c-6 0-11 5-11 11l0 488c0 6 5 11 11 11 6 0 10-5 10-11l0-478 480 0c6 0 11-5 11-10 0-6-5-11-11-11z m-353 58l-82 0c-6 0-11 5-11 11l0 140c0 6 5 11 11 11l82 0c6 0 11-5 11-11l0-140c0-6-5-11-11-11z m-72 21l62 0 0 120-62 0z m233-21l-82 0c-6 0-11 5-11 11l0 385c0 6 5 11 11 11l82 0c6 0 11-5 11-11l0-385c0-6-5-11-11-11z m-72 21l62 0 0 365-62 0z m233-21l-82 0c-6 0-11 5-11 11l0 281c0 6 5 11 11 11l82 0c6 0 11-5 11-11l0-281c0-6-5-11-11-11z m-72 21l62 0 0 260-62 0z"/>
<glyph unicode="&#121;" d="M135 0l-121 0c-6 0-10 5-10 11l0 358c0 6 4 11 10 11l121 0c6 0 11-5 11-11l0-358c0-6-5-11-11-11z m-110 21l99 0 0 338-99 0z m231-21l-120 0c-6 0-11 5-11 11l0 203c0 5 5 10 11 10l120 0c6 0 11-5 11-10l0-203c0-6-5-11-11-11z m-110 21l100 0 0 182-100 0z m231-21l-121 0c-5 0-10 5-10 11l0 266c0 6 5 11 10 11l121 0c6 0 11-5 11-11l0-266c0-6-5-11-11-11z m-110 21l99 0 0 245-99 0z m231-21l-121 0c-6 0-11 5-11 11l0 133c0 6 5 11 11 11l121 0c6 0 10-5 10-11l0-133c0-6-4-11-10-11z m-110 21l99 0 0 112-99 0z m80 308c-1 0-3 0-5 1l-156 92-80-61c-3-3-8-3-12 0l-168 119c-5 4-6 10-2 15 3 5 10 6 15 3l161-115 78 60c4 3 9 3 12 1l163-95c5-3 7-10 4-15-2-3-6-5-10-5z m-412 93c-5 0-9 3-10 8l-13 66c0 3 0 6 2 9 2 2 5 4 8 4l69 3c6 0 11-4 12-10 0-6-5-11-11-11l-57-3 11-54c1-6-3-11-9-12-1 0-1 0-2 0z"/>
<glyph unicode="&#122;" d="M185 0c-1 0-2 0-3 0-3 1-5 4-7 7l-28 75-80-6c-3 0-6 1-8 4-3 2-3 6-3 9l17 78-70 39c-3 2-5 4-6 8 0 3 1 6 3 9l57 57-38 70c-2 3-2 6-1 9 2 3 5 6 8 6l78 18 6 79c0 4 2 7 5 9 3 1 6 2 9 1l75-28 48 64c4 5 13 5 18 0l48-64 75 28c3 1 6 0 9-1 3-2 5-5 5-8l6-80 78-18c3 0 6-2 8-6 1-3 1-6-1-9l-38-70 57-57c2-3 3-6 3-9-1-4-3-6-6-8l-70-39 17-78c0-3 0-7-3-9-2-3-5-4-8-4l-80 6-28-75c-2-3-4-6-7-7-4-1-7 0-10 2l-64 48-64-48c-2-1-4-2-7-2z m71 74c2 0 4-1 6-2l60-44 26 69c1 4 5 7 10 6l74-5-16 73c-1 4 2 9 6 11l64 36-52 52c-3 3-4 9-1 13l35 65-72 16c-5 1-8 4-9 9l-5 74-69-26c-5-1-10 0-13 4l-44 59-44-59c-3-4-8-5-13-4l-69 26-5-74c-1-5-4-8-9-9l-72-16 35-65c3-4 2-10-1-13l-52-52 64-36c4-2 6-7 6-11l-16-73 74 5c4 1 9-2 10-6l26-69 60 44c2 1 4 2 6 2z m-138 235c6 1 17 2 28 2 15 0 25-2 32-8 6-5 10-12 10-21 0-11-8-21-20-26l0 0c11-3 24-12 24-30 0-10-4-18-10-24-8-7-21-11-41-11-10 0-18 1-23 2z m15-48l14 0c16 0 25 8 25 19 0 14-10 20-26 20-7 0-11-1-13-1z m0-57c3-1 7-1 13-1 16 0 30 6 30 23 0 16-14 23-30 23l-13 0z m95 106l0-69c0-27 12-38 27-38 18 0 29 11 29 38l0 69 16 0 0-68c0-37-20-52-45-52-24 0-42 14-42 51l0 69z m124-118l0 50-37 68 17 0 17-32c5-9 8-16 12-24l0 0c3 7 7 15 12 24l17 32 17 0-39-67 0-51z"/>
<glyph unicode="&#65;" d="M167 280c-94 0-167 41-167 94 0 52 73 94 167 94 94 0 167-42 167-94 0-6-1-11-2-16-2-6-8-9-13-7-6 1-9 7-8 13 1 3 2 6 2 10 0 39-67 72-146 72-79 0-146-33-146-72 0-40 67-73 146-73 21 0 41 2 60 7 6 1 12-3 13-8 1-6-2-12-8-13-21-5-42-7-65-7z m0-43c-94 0-167 41-167 94 0 6 5 11 11 11 6 0 10-5 10-11 0-39 67-73 146-73 20 0 39 2 57 6 6 1 12-2 13-8 1-6-2-11-8-13-20-4-41-6-62-6z m281-153c-43 0-96 31-138 81-61 71-76 154-36 188 11 10 25 14 42 14 43 0 95-30 138-80 28-33 47-71 55-105 8-37 1-66-19-83-11-10-26-15-42-15z m-132 262c-12 0-21-3-28-9-30-26-13-98 38-158 38-45 86-73 122-73 11 0 21 3 28 9 14 12 18 34 12 63-7 31-25 64-51 95-37 44-85 73-121 73z m99-289c-41 0-94 29-137 80-29 34-48 71-56 105-8 37-1 67 19 84l30 25c5 4 11 3 15-1 4-5 4-12-1-15l-30-26c-14-11-18-34-12-62 7-31 25-65 51-96 51-60 119-89 150-64l35 30c4 4 11 4 15-1 4-4 3-11-1-15l-36-30c-11-10-26-14-42-14z m-248 132c-94 0-167 41-167 94 0 6 5 10 11 10 6 0 10-4 10-10 0-40 67-73 146-73 25 0 50 3 71 10 6 1 12-2 13-8 2-5-1-11-7-13-23-7-50-10-77-10z m0-48c-94 0-167 41-167 94 0 6 5 10 11 10 6 0 10-4 10-10 0-40 67-73 146-73 35 0 68 6 95 18 5 2 12 0 14-6 2-5 0-11-6-14-29-12-65-19-103-19z m0-49c-94 0-167 42-167 94 0 6 5 11 11 11 6 0 10-5 10-11 0-39 67-72 146-72 46 0 89 11 117 30 5 3 11 2 14-3 4-5 2-12-2-15-32-21-79-34-129-34z m0-48c-94 0-167 42-167 94l0 228c0 6 5 10 11 10 6 0 10-4 10-10l0-228c0-39 67-72 146-72 62 0 118 20 138 50 4 5 10 6 15 3 5-3 6-10 3-15-24-36-86-60-156-60z m-9 274l0 15c-9 0-18 3-23 6l4 10c5-3 13-6 21-6 10 0 17 6 17 14 0 8-6 13-16 17-15 6-24 13-24 26 0 12 8 21 22 23l0 15 9 0 0-15c8 0 14-2 18-5l-3-9c-3 2-9 5-18 5-12 0-16-7-16-13 0-7 6-11 18-16 15-6 23-14 23-27 0-11-8-22-23-24l0-16z m264-132l-11 9c-6-6-13-11-20-12l-5 9c6 1 13 5 19 12 6 7 6 17 0 22-6 5-13 4-24-1-14-8-25-10-34-2-9 8-11 20-4 32l-11 9 6 7 11-9c6 6 11 9 16 11l5-9c-4-1-10-4-16-11-7-8-5-16 0-20 5-4 12-3 24 3 14 8 25 9 35 0 8-7 11-20 3-33l12-10z"/>
<glyph unicode="&#66;" d="M512 80l-512 0 0 234 512 0z m-491 22l470 0 0 191-470 0z m415 48l0 12c-6 0-13 2-17 5l3 8c4-3 10-5 16-5 8 0 14 4 14 11 0 6-5 10-13 14-12 4-19 9-19 19 0 10 7 17 17 19l0 11 7 0 0-11c7 0 12-2 15-4l-3-7c-2 1-7 4-14 4-9 0-12-6-12-10 0-6 4-9 14-13 12-5 18-11 18-21 0-9-7-18-19-20l0-12-7 0z m-364 0l0 12c-7 0-14 2-18 5l3 8c4-3 10-5 16-5 8 0 14 4 14 11 0 6-5 10-13 14-12 4-19 9-19 19 0 10 7 17 17 19l0 11 8 0 0-11c6 0 11-2 14-4l-2-7c-3 1-8 4-15 4-9 0-12-6-12-10 0-6 4-9 14-13 12-5 18-11 18-21 0-9-6-18-18-20l0-12-7 0z m186 73l0 0-12-6-2 7 16 8 8 0 0-69-10 0z m217 110l-438 0c-6 0-11 5-11 11 0 6 5 11 11 11l438 0c6 0 11-5 11-11 0-6-5-11-11-11z m-25 41l-388 0c-6 0-11 4-11 10 0 6 5 11 11 11l388 0c6 0 11-5 11-11 0-6-5-10-11-10z m-22 36l-344 0c-5 0-10 5-10 11 0 6 5 11 10 11l344 0c5 0 10-5 10-11 0-6-5-11-10-11z m-172-291c-43 0-78 35-78 78 0 43 35 79 78 79 43 0 78-36 78-79 0-43-35-78-78-78z m0 135c-31 0-57-25-57-57 0-31 26-57 57-57 31 0 57 26 57 57 0 32-26 57-57 57z"/>
<glyph unicode="&#67;" d="M186 2c-1 0-2 1-3 1-3 1-6 3-7 6l-28 74-79-5c-3 0-6 1-8 4-3 2-3 6-3 9l17 77-69 38c-3 2-5 5-6 8 0 4 1 7 3 9l56 56-38 70c-1 3-2 6 0 9 1 3 4 6 7 6l77 17 6 79c1 4 2 7 5 8 3 2 7 3 10 2l74-28 47 63c2 3 6 5 9 5 3 0 6-2 9-5l47-63 74 28c3 1 7 0 10-2 3-1 4-4 5-8l6-79 77-17c3 0 6-3 7-6 2-3 1-6 0-9l-38-70 56-56c2-2 3-5 3-9-1-3-3-6-6-8l-69-38 17-77c0-3 0-7-3-9-2-3-5-4-8-4l-79 5-28-74c-1-3-4-5-7-6-3-1-7 0-9 2l-64 47-63-47c-2-2-5-3-7-3z m-30 103c4 0 8-2 9-7l26-68 59 44c3 2 9 2 12 0l59-44 25 68c2 5 6 7 11 7l73-5-15 72c-1 4 1 9 5 11l64 35-52 52c-3 3-4 8-1 13l34 64-71 15c-4 1-8 5-8 10l-6 73-68-26c-4-1-9 0-12 4l-44 58-44-58c-3-4-8-5-12-4l-68 26-6-73c0-5-4-9-8-10l-71-15 34-64c3-5 2-10-1-13l-52-52 64-35c4-2 6-7 5-11l-15-72 73 5c0 0 0 0 1 0z m-21 95l0 94 14 0 30-47c7-12 13-21 17-31l0 0c-1 13-1 24-1 39l0 39 11 0 0-94-12 0-30 48c-6 10-13 21-18 31l0 0c1-12 1-23 1-39l0-40-12 0z m142 44l-37 0 0-34 41 0 0-10-53 0 0 94 51 0 0-10-39 0 0-30 37 0z m37-44l-24 94 12 0 12-47c2-12 5-24 7-33l0 0c1 9 4 21 8 33l12 47 13 0 12-48c2-11 5-22 6-32l0 0c2 10 5 21 8 33l13 47 12 0-27-94-13 0-12 49c-2 12-4 21-6 31l0 0c-2-9-4-19-7-31l-14-49-12 0z"/>
<glyph unicode="&#68;" d="M137 0l-118 0c-6 0-11 5-11 11l0 390c0 6 5 10 11 10l118 0c6 0 11-4 11-10l0-390c0-6-5-11-11-11z m-108 21l98 0 0 369-98 0z m227-21l-118 0c-6 0-11 5-11 11l0 220c0 6 5 11 11 11l118 0c6 0 11-5 11-11l0-220c0-6-5-11-11-11z m-107 21l97 0 0 200-97 0z m226-21l-119 0c-6 0-10 5-10 11l0 289c0 6 4 11 10 11l119 0c6 0 10-5 10-11l0-289c0-6-4-11-10-11z m-108 21l97 0 0 269-97 0z m226-21l-118 0c-6 0-11 5-11 11l0 145c0 5 5 10 11 10l118 0c6 0 11-5 11-10l0-145c0-6-5-11-11-11z m-108 21l98 0 0 124-98 0z m89 304c-2 0-4 1-6 2l-153 121-80-56c-3-2-8-3-11 0l-155 100c-5 4-7 10-4 15 4 5 10 6 15 3l149-96 80 56c4 2 9 2 13-1l159-125c4-3 5-10 2-15-3-2-6-4-9-4z m9-9l-68 0c-6 0-10 5-10 11 0 5 4 10 10 10l56 0-7 53c-1 6 3 11 9 12 5 1 11-3 12-9l9-65c0-3-1-6-3-8-2-3-5-4-8-4z"/>
<glyph unicode="&#69;" d="M343 113l-174 0c-3 0-5 1-7 3l-42 38-109 0c-4 0-7 1-9 4-2 2-2 5-2 9l30 130c1 6 7 9 12 8 6-1 10-7 8-13l-26-117 100 0c2 0 5-1 7-3l42-38 166 0 42 38c2 2 5 3 7 3l100 0-25 111c-1 5 2 11 8 12 6 2 12-2 13-8l28-123c0-4 0-7-2-9-2-3-5-4-9-4l-109 0-42-38c-2-2-4-3-7-3z m137-113l-448 0c-5 0-10 4-11 9l-21 157c-1 6 3 11 9 12 6 1 11-3 12-9l20-148 430 0 20 148c1 6 6 10 12 9 6-1 10-6 9-12l-21-157c-1-5-6-9-11-9z m-18 158c-6 0-11 5-11 11l0 322-389 0 0-322c0-6-4-11-10-11-6 0-11 5-11 11l0 332c0 6 5 11 11 11l410 0c6 0 11-5 11-11l0-332c0-6-5-11-11-11z m-71 135c-3 0-6 1-8 4l-31 37-32-37c-3-4-7-5-12-3-4 1-6 5-6 10l0 197c0 6 4 11 10 11l79 0c6 0 11-5 11-11l0-197c0-5-3-9-7-10-1-1-3-1-4-1z m-68 198l0-159 21 25c2 2 5 4 8 4 3 0 6-2 8-4l21-24 0 158z"/>
<glyph unicode="&#70;" d="M327 0c-3 0-5 1-7 2l-64 48-64-48c-3-2-6-3-10-2-3 1-5 4-7 7l-28 75-80-6c-3 0-6 1-8 4-3 2-3 6-3 9l17 78-70 39c-3 2-5 4-6 8 0 3 1 6 3 9l57 57-38 70c-2 3-2 6-1 9 2 4 5 6 8 6l78 18 6 80c0 3 2 6 5 8 3 1 6 2 9 1l75-28 49 64c4 5 12 5 17 0l48-64 75 28c3 1 6 0 9-1 3-2 5-5 5-8l6-80 78-18c4 0 6-2 8-6 1-3 1-6-1-9l-38-70 57-57c2-3 3-6 3-9-1-4-3-6-6-8l-70-39 17-78c0-3 0-7-3-9-2-3-5-4-8-4l-80 6-28-75c-2-3-4-6-7-7-1 0-2 0-3 0z m-71 74c2 0 4-1 6-2l60-44 26 69c1 4 5 7 10 6l74-5-15 73c-1 4 1 9 5 11l64 36-52 52c-3 3-4 9-1 13l35 65-72 16c-5 1-8 4-9 9l-5 74-69-26c-5-1-10 0-13 4l-44 59-44-59c-3-4-8-5-13-4l-69 26-5-74c-1-4-4-8-9-9l-72-16 35-65c3-4 2-10-1-13l-52-52 64-36c4-2 7-7 6-11l-16-73 74 5c4 1 9-2 10-6l26-69 60 44c2 1 4 2 6 2z m-24 232c0-47-24-70-53-70-28 0-52 22-52 67 0 45 24 70 53 70 32 0 52-24 52-67z m-81-2c-1-28 10-50 28-50 20 0 29 21 29 51 0 27-8 50-29 50-18 0-28-23-28-51z m26-162l131 231 19 0-131-231z m200 72c0-47-24-70-53-70-28 0-52 22-52 67 0 44 24 70 54 70 31 0 51-24 51-67z m-81-2c-1-29 10-50 29-50 20 0 29 21 29 51 0 27-8 49-29 49-19 0-29-22-29-50z"/>
<glyph unicode="&#71;" d="M501 244c-3 0-7 2-9 5-48 76-139 123-237 123-97 0-187-46-235-120-4-5-10-7-15-3-5 3-6 10-3 14 52 80 149 130 253 130 105 0 203-51 255-132 3-5 2-12-3-15-2-1-4-2-6-2z m-244-125c-105 0-203 51-255 132-3 5-2 12 3 15 5 3 11 2 15-3 48-76 139-123 237-123 97 0 187 46 235 120 4 5 10 7 15 3 5-3 6-10 3-14-52-80-149-130-253-130z m-1 32c-58 0-105 47-105 105 0 58 47 105 105 105 58 0 105-47 105-105 0-58-47-105-105-105z m0 189c-46 0-84-38-84-84 0-46 38-84 84-84 46 0 84 38 84 84 0 46-38 84-84 84z m-4-136l0 13c-8 0-15 2-20 5l3 9c5-3 12-6 19-6 9 0 15 6 15 13 0 7-5 11-15 15-13 5-21 11-21 22 0 10 8 18 20 20l0 13 7 0 0-12c8-1 13-3 17-5l-3-8c-3 1-8 4-16 4-10 0-14-6-14-11 0-6 5-10 16-14 13-5 20-12 20-23 0-10-7-20-20-22l0-13z"/>
<glyph unicode="&#72;" d="M256 0c-141 0-256 115-256 256 0 141 115 256 256 256 141 0 256-115 256-256 0-6-5-11-11-11-6 0-10 5-10 11 0 129-106 235-235 235-129 0-235-106-235-235 0-129 106-235 235-235 6 0 11-4 11-10 0-6-5-11-11-11z m75 37l-119 0c-5 0-10 5-10 11 0 23 23 45 51 68 5 4 10 8 15 12 22 17 43 33 43 55 0 28-13 42-39 42-36 0-46-42-47-42-1-6-7-9-12-8-6 2-10 7-8 13 5 20 25 59 67 59 38 0 60-24 60-64 0-33-27-54-51-72-5-4-10-8-14-12-18-14-34-28-41-41l105 0c6 0 10-5 10-10 0-6-4-11-10-11z m127-3c-6 0-11 4-11 10l0 43-92 0c-4 0-8 3-10 6-1 4-1 8 1 11l103 138c3 4 8 6 12 4 5-1 8-5 8-10l0-127 25 0c6 0 11-5 11-11 0-6-5-11-11-11l-25 0 0-43c0-6-5-10-11-10z m-82 75l71 0 0 95z"/>
<glyph unicode="&#73;" d="M189 318c0 12-9 23-20 23-11 0-20-11-20-23 0-13 9-23 20-23 11 0 20 10 20 23z m95-152l0 20c-12 0-25 4-32 9l5 13c8-5 18-9 30-9 15 0 25 9 25 20 0 11-8 18-24 24-21 8-34 17-34 34 0 17 12 30 31 33l0 20 13 0 0-20c13 0 21-3 27-7l-5-13c-4 3-13 7-26 7-16 0-22-9-22-17 0-11 8-16 26-23 21-8 32-19 32-37 0-15-11-30-33-34l0-20-13 0z m76-128l-51 0c-6 0-11 5-11 11l0 41c-43-11-90-12-136-1l0-40c0-6-5-11-11-11l-51 0c-6 0-11 5-11 11l0 73c0 1 0 1 0 2 0 1 0 2 0 3 0 42-32 79-75 85-4 1-8 4-9 8-3 13-5 26-5 38 0 19 4 38 12 56 2 6 8 8 14 6 7-3 14-4 22-4 31 0 57 25 58 58 1 33-15 65-30 80-3 3-4 7-2 11 1 4 4 6 8 7 0 0 10 2 23 2 25 0 70-6 101-40 6 0 14 1 21 1 126 0 228-79 228-177 0-54-31-103-84-137l0-72c0-6-5-11-11-11z m-41 22l31 0 0 67c0 4 1 7 5 9 50 30 78 74 78 122 0 86-92 156-206 156-9 0-17-1-25-2-3 0-7 1-9 4-26 32-66 37-88 36 13-20 23-48 23-79-2-44-37-79-80-79-7 0-14 1-20 3-4-13-7-26-7-39 0-8 1-17 3-26 51-11 86-55 86-106 0 0 0-1 0-1 0 0 0-1 0-1l0-64 31 0 0 43c0 3 1 6 4 8 3 2 6 3 9 2 51-15 104-14 151 1 4 1 7 1 10-1 3-2 4-6 4-9l0-44z m125 215c-5 0-9 4-10 9-1 6 2 11 8 13 34 6 50 37 50 37 2 6 9 8 14 5 5-2 7-8 5-14-1-1-20-41-65-49-1-1-1-1-2-1z"/>
<glyph unicode="&#74;" d="M256 0c-141 0-256 115-256 256 0 141 115 256 256 256 141 0 256-115 256-256 0-141-115-256-256-256z m0 491c-129 0-235-106-235-235 0-129 106-235 235-235 129 0 235 106 235 235 0 129-106 235-235 235z m124-454c-4 0-7 2-9 5l-121 203-238 0c-6 0-10 5-10 11 0 6 4 11 10 11l244 0c4 0 7-2 9-6l124-208c3-5 1-11-4-14-2-1-3-2-5-2z m-124 208c-1 0-2 0-2 1-6 1-10 7-8 12l54 236c2 6 7 9 13 8 6-1 9-7 8-13l-55-235c-1-5-5-9-10-9z m156 184l-113 0c-6 0-11 4-11 10 0 6 5 11 11 11l113 0c6 0 10-5 10-11 0-6-4-10-10-10z m41-46l-165 0c-6 0-11 5-11 11 0 6 5 11 11 11l165 0c6 0 11-5 11-11 0-6-5-11-11-11z m25-45l-200 0c-6 0-11 5-11 11 0 6 5 10 11 10l200 0c6 0 11-4 11-10 0-6-5-11-11-11z m18-45l-229 0c-6 0-11 5-11 10 0 6 5 11 11 11l229 0c6 0 11-5 11-11 0-5-5-10-11-10z m0-45l-239 0c-6 0-11 4-11 10 0 6 5 11 11 11l239 0c6 0 11-5 11-11 0-6-5-10-11-10z m0-46l-214 0c-6 0-11 5-11 11 0 6 5 11 11 11l214 0c6 0 11-5 11-11 0-6-5-11-11-11z m-18-45l-170 0c-5 0-10 5-10 11 0 6 5 10 10 10l170 0c6 0 11-4 11-10 0-6-5-11-11-11z m-25-45l-116 0c-6 0-10 5-10 10 0 6 4 11 10 11l116 0c6 0 11-5 11-11 0-5-5-10-11-10z m-32-46l-59 0c-6 0-10 5-10 11 0 6 4 11 10 11l59 0c6 0 11-5 11-11 0-6-5-11-11-11z"/>
<glyph unicode="&#75;" d="M198 318c0 12-9 23-20 23-11 0-20-11-20-23 0-13 9-23 20-23 11 0 20 10 20 23z m162-280l-51 0c-6 0-11 5-11 11l0 41c-43-11-90-12-136-1l0-40c0-6-5-11-11-11l-51 0c-6 0-11 5-11 11l0 73c0 1 0 1 0 2 0 1 0 2 0 3 0 42-32 79-75 85-4 1-8 4-9 8-3 13-5 26-5 38 0 19 4 38 12 56 2 6 8 8 14 6 7-3 14-4 22-4 31 0 57 25 58 58 1 33-15 65-30 80-3 3-4 7-2 11 1 4 4 6 8 7 0 0 10 2 23 2 25 0 70-6 101-40 6 0 14 1 21 1 126 0 228-79 228-177 0-54-31-103-84-137l0-72c0-6-5-11-11-11z m-41 22l31 0 0 67c0 4 1 7 5 9 50 30 78 74 78 122 0 86-92 156-206 156-9 0-17-1-25-2-3 0-7 1-9 4-26 32-66 37-88 36 13-20 23-48 23-79-2-44-37-79-80-79-7 0-14 1-20 3-4-13-7-26-7-39 0-8 1-17 3-26 51-11 86-55 86-106 0 0 0-1 0-1 0 0 0-1 0-1l0-64 31 0 0 43c0 3 1 6 4 8 2 2 6 3 9 2 51-15 104-14 151 1 4 1 7 1 10-1 3-2 4-6 4-9l0-44z m125 215c-5 0-9 4-10 9-1 6 2 11 8 13 34 6 50 37 50 37 2 6 9 8 14 5 5-2 7-8 5-14-1-1-20-41-65-49-1-1-1-1-2-1z m-98-19l-126 0c-6 0-11 5-11 11 0 6 5 10 11 10l126 0c6 0 10-4 10-10 0-6-4-11-10-11z"/>
<glyph unicode="&#76;" d="M501 248l-490 0c-4 0-8 2-10 5-1 4-1 8 0 11l109 193c2 3 5 5 9 5l154 0c6 0 11-4 11-10 0-6-5-11-11-11l-148 0-96-172 454 0-99 178c-3 5-1 11 4 14 5 3 11 1 14-4l109-193c1-3 1-7 0-11-2-3-6-5-10-5z m0-83l-490 0c-4 0-8 2-10 6-1 3-1 7 0 10l47 83c3 5 9 7 14 4 5-3 7-9 4-15l-37-66 454 0-37 66c-3 6-1 12 4 15 5 3 11 1 14-4l47-83c1-3 1-7 0-10-2-4-6-6-10-6z m0-82l-490 0c-4 0-8 2-10 5-1 3-1 7 0 11l47 82c3 5 9 7 14 4 5-3 7-9 4-14l-37-67 454 0-37 67c-3 5-1 11 4 14 5 3 11 1 14-4l47-82c1-4 1-8 0-11-2-3-6-5-10-5z m0-83l-490 0c-4 0-8 2-10 5-1 4-1 8 0 11l47 83c3 5 9 7 14 4 5-3 7-10 4-15l-37-67 454 0-37 67c-3 5-1 12 4 15 5 3 11 1 14-4l47-83c1-3 1-7 0-11-2-3-6-5-10-5z m-287 329c-3 0-6 1-8 4l-65 64c-4 4-4 11 0 15 5 5 11 5 15 0l58-57 171 154c5 4 11 4 15-1 4-4 4-11 0-15l-179-161c-2-2-5-3-7-3z"/>
<glyph unicode="&#77;" d="M290-3c-2 0-5 1-7 3-2 2-3 5-3 8l0 106c0 5 3 9 8 10 49 12 88 51 100 100 1 5 5 8 10 8l106 0c3 0 6-1 8-3 2-3 3-6 3-9-16-116-107-207-223-223-1 0-1 0-2 0z m11 109l0-86c97 18 173 94 190 191l-85 0c-14-50-55-91-105-105z m-77-109c0 0-1 0-1 0-129 18-226 128-226 258 0 143 117 260 260 260 129 0 239-96 257-223 1-2 1-3 1-4 0-6-5-11-11-11 0 0 0 0 0 0l-106 0c-5 0-9 4-10 9-15 61-68 103-131 103-74 0-134-60-134-134 0-63 42-116 103-131 5-1 9-5 9-10l0-106c0-3-2-6-4-8-2-2-4-3-7-3z m33 496c-131 0-238-107-238-238 0-115 83-214 194-235l0 86c-66 19-112 79-112 149 0 86 70 156 156 156 70 0 130-46 149-112l85 0c-20 111-119 194-234 194z"/>
<glyph unicode="&#78;" d="M256 106c-83 0-150 67-150 150 0 82 67 150 150 150 82 0 150-68 150-150 0-83-68-150-150-150z m0 278c-71 0-128-57-128-128 0-71 57-128 128-128 71 0 128 57 128 128 0 71-57 128-128 128z m-9-239l0 27c-16 0-32 5-42 12l7 18c10-6 24-12 39-12 19 0 32 12 32 27 0 15-10 24-31 32-27 11-44 24-44 47 0 23 16 40 41 44l0 27 17 0 0-26c16-1 27-5 35-9l-7-18c-6 3-17 9-34 9-21 0-29-13-29-24 0-14 10-21 34-30 28-12 42-26 42-50 0-22-15-42-43-46l0-28-17 0 0 0z m-129 153c-2 0-5 1-7 3l-70 69-23-23c-3-3-7-4-11-2-4 2-7 6-7 10l0 146c0 6 5 11 11 11l146 0c4 0 8-3 10-7 2-4 1-8-2-11l-23-23 69-70c4-4 4-11 0-15-4-4-11-4-15 0l-77 77c-2 2-3 5-3 8 0 3 1 5 3 7l12 13-110 0 0-110 13 12c2 2 4 3 7 3 3 0 6-1 8-3l77-77c4-4 4-11 0-15-2-2-5-3-8-3z m383-298l-146 0c-4 0-8 3-10 7-2 4-1 8 2 11l23 23-69 70c-4 4-4 11 0 15 4 4 11 4 15 0l77-77c2-2 3-5 3-8 0-3-1-5-3-7l-12-13 110 0 0 110-13-12c-4-4-11-4-15 0l-77 77c-4 4-4 11 0 15 4 4 11 4 15 0l70-69 23 23c3 3 7 4 11 2 4-2 7-6 7-10l0-146c0-6-5-11-11-11z m-107 298c-3 0-6 1-8 3-4 4-4 11 0 15l77 77c4 4 11 4 15 0l13-12 0 110-110 0 12-13c2-2 3-4 3-7 0-3-1-6-3-8l-77-77c-4-4-11-4-15 0-4 4-4 11 0 15l69 70-23 23c-3 3-4 7-2 11 2 4 6 7 10 7l146 0c6 0 11-5 11-11l0-146c0-4-3-8-7-10-4-2-8-1-11 2l-23 23-70-69c-2-2-5-3-7-3z m-237-298l-146 0c-6 0-11 5-11 11l0 146c0 4 3 8 7 10 4 2 8 1 11-2l23-23 70 69c4 4 11 4 15 0 4-4 4-11 0-15l-77-77c-4-4-11-4-15 0l-13 12 0-110 110 0-12 13c-2 2-3 4-3 7 0 3 1 6 3 8l77 77c4 4 11 4 15 0 4-4 4-11 0-15l-69-70 23-23c3-3 4-7 2-11-2-4-6-7-10-7z"/>
<glyph unicode="&#79;" d="M11 0c-2 0-3 0-4 1-6 2-8 8-6 14l132 328c1 3 4 6 7 7 3 0 7-1 10-3l182-164 129 297c3 6 9 8 14 6 6-2 8-9 6-14l-135-311c-1-3-4-6-7-6-4-1-7 0-10 2l-182 164-126-314c-2-4-6-7-10-7z m490 390c-5 0-9 4-10 9l-15 85-73-48c-5-3-12-1-15 4-3 4-2 11 3 14l87 56c3 2 6 3 10 1 3-1 5-4 6-8l18-100c1-6-3-11-9-12 0-1-1-1-2-1z"/>
<glyph unicode="&#80;" d="M310 69l-299 0c-6 0-11 5-11 10l0 257c0 6 5 10 11 10l161 0c2 0 4 0 6-1l47-33 208 0c6 0 11-4 11-10l0-108c0-6-5-11-11-11-6 0-11 5-11 11l0 97-200 0c-2 0-4 1-6 2l-47 32-148 0 0-235 289 0c6 0 10-5 10-11 0-5-4-10-10-10z m68 222c-1 0-2 0-3 1-6 1-9 7-7 13l31 105-283 78-47-155c-1-6-7-9-13-7-6 1-9 7-7 13l49 165c2 6 8 9 13 8l304-84c3-1 5-3 6-5 2-3 2-6 1-9l-34-115c-1-5-6-8-10-8z m-24 79c-1 0-2 0-3 0l-213 59c-6 2-9 8-8 14 2 5 8 9 13 7l214-59c5-2 9-8 7-13-1-5-5-8-10-8z m-18-52c-1 0-2 0-3 1l-213 59c-6 1-9 7-8 13 2 6 8 9 13 7l214-59c5-1 9-7 7-13-1-5-5-8-10-8z m70-318c-59 0-107 46-107 103 0 57 48 103 107 103 58 0 106-46 106-103 0-57-48-103-106-103z m0 185c-47 0-86-37-86-82 0-45 39-82 86-82 46 0 85 37 85 82 0 45-39 82-85 82z m47-92l-95 0c-6 0-10 4-10 10 0 6 4 11 10 11l95 0c6 0 11-5 11-11 0-6-5-10-11-10z"/>
<glyph unicode="&#81;" d="M310 69l-299 0c-6 0-11 5-11 10l0 257c0 6 5 10 11 10l161 0c2 0 4 0 6-1l47-33 208 0c6 0 11-4 11-10l0-108c0-6-5-11-11-11-6 0-11 5-11 11l0 97-200 0c-2 0-4 1-6 2l-47 32-148 0 0-235 289 0c6 0 10-5 10-11 0-5-4-10-10-10z m68 222c-1 0-2 0-3 1-6 1-9 7-7 13l31 105-283 78-47-155c-1-6-7-9-13-7-6 1-9 7-7 13l49 165c2 6 8 9 13 8l304-84c3-1 5-3 6-5 2-3 2-6 1-9l-34-115c-1-5-6-8-10-8z m-24 79c-1 0-2 0-3 0l-213 59c-6 2-9 8-8 14 2 5 8 9 13 7l214-59c5-2 9-8 7-13-1-5-5-8-10-8z m-18-52c-1 0-2 0-3 1l-213 59c-6 1-9 7-8 13 2 6 8 9 13 7l214-59c5-1 9-7 7-13-1-5-5-8-10-8z m70-318c-59 0-107 46-107 103 0 57 48 103 107 103 58 0 106-46 106-103 0-57-48-103-106-103z m0 185c-47 0-86-37-86-82 0-45 39-82 86-82 46 0 85 37 85 82 0 45-39 82-85 82z m0-140c-6 0-11 5-11 11l0 95c0 5 5 10 11 10 5 0 10-5 10-10l0-95c0-6-5-11-10-11z m47 48l-95 0c-6 0-10 4-10 10 0 6 4 11 10 11l95 0c6 0 11-5 11-11 0-6-5-10-11-10z"/>
<glyph unicode="&#82;" d="M476 30c-1 0-3 1-4 1l-311 135c-3 1-6 4-6 7-1 4 0 7 2 10l164 182-314 126c-6 3-8 9-6 14 2 6 8 8 14 6l328-132c3-1 6-4 7-7 0-3-1-7-3-10l-164-182 298-129c5-3 7-9 5-14-2-4-6-7-10-7z m-75-30c-5 0-9 4-10 9-1 6 2 11 8 12l85 15-48 73c-3 5-1 12 4 15 4 3 11 2 14-3l56-87c2-3 3-6 1-10-1-3-4-5-8-6l-100-18c-1 0-1 0-2 0z"/>
<glyph unicode="&#83;" d="M378 227c-1 0-3 1-4 1-5 2-8 9-6 14 15 37 6 66-28 89 0 1-1 1-2 2-2 2-51 56-124 33-25-6-81-19-108-18-1-6-2-15 2-22 8-13 29-21 62-23 0 0 1 0 2 0l61-17c5-2 9-8 7-13-1-6-7-9-13-8l-60 17c-40 2-66 13-78 33-13 24 0 49 1 50 3 5 9 7 14 5 9-4 61 6 105 17 80 25 136-30 144-39 41-28 53-68 35-114-2-4-6-7-10-7z m-280-4c-2 0-4 1-6 2-5 4-6 10-2 15l45 62c3 4 10 5 15 2 4-4 5-10 2-15l-45-62c-2-2-5-4-9-4z m339 46c-3 0-5 1-7 2l-157 118c-3 2-5 5-5 8 0 3 1 6 4 8l108 104c5 4 11 4 15 0 4-5 4-11 0-15l-100-96 140-104 59 61c4 4 10 4 15 0 4-4 4-10 0-15l-65-68c-2-2-5-3-7-3z m-2-269c-3 0-5 1-7 3-31 26-67 38-114 38-29 0-60-5-90-9-30-5-62-9-93-9-52 0-93 13-127 43-3 2-4 6-4 10l34 187c1 3 4 6 7 8 4 1 8 0 11-2 30-26 66-38 113-38 30 0 60 4 90 9 31 4 63 9 93 9 53 0 93-14 128-44 3-2 4-6 3-10l-34-186c-1-4-3-7-7-8-1-1-2-1-3-1z m-121 62c45 0 82-10 113-32l30 163c-29 23-64 34-109 34-29 0-60-4-90-9-30-4-62-9-93-9-45 0-81 11-113 32l-30-163c30-23 65-34 109-34 29 0 60 4 90 9 31 4 62 9 93 9z m-96 0c-18 0-33 7-44 19-10 13-14 30-11 49 7 38 44 72 86 78 23 4 44-3 56-18 11-13 15-30 11-48-7-39-44-72-86-79-4-1-8-1-12-1z m43 126c-2 0-5 0-8-1-33-5-63-32-69-61-2-13 0-23 7-31 7-9 21-13 36-11 33 5 63 32 68 62 3 12 0 23-6 31-6 7-16 11-28 11z m-157-58c-1-8-9-13-17-11-8 2-13 12-12 20 2 8 10 12 18 10 8-3 13-10 11-19z m300 3c-2-9-9-13-17-10-8 2-14 10-12 18 1 8 9 13 17 11 8-2 14-11 12-19z m-175-38c0 4 1 7 2 10-6-1-12 0-15 2 1 2 2 5 3 7 4-2 9-3 14-2 8 1 14 6 15 11 1 6-3 8-10 10-10 2-16 6-14 14 1 8 9 15 18 18 1 4 2 7 2 10 2 0 5 1 7 1-1-3-1-6-2-9 6 0 10-1 13-2-1-2-3-4-4-7-2 1-6 3-12 2-8-1-12-6-13-10-1-5 3-7 11-9 10-3 14-7 13-16-2-7-9-15-20-19 0-3-1-6-2-10-2 0-4 0-6-1z"/>
<glyph unicode="&#84;" d="M174 338c-48 0-87 39-87 87 0 48 39 87 87 87 48 0 87-39 87-87 0-48-39-87-87-87z m0 153c-36 0-66-30-66-66 0-36 30-66 66-66 36 0 66 30 66 66 0 36-30 66-66 66z m28-344l-202 0 0 11c0 84 78 153 174 153 35 0 69-9 98-26 5-3 7-10 4-15-3-5-10-7-15-3-26 15-56 23-87 23-80 0-146-54-152-122l180 0c5 0 10-5 10-10 0-6-5-11-10-11z m195-10c1-5 1-10-1-15-1-4-4-8-7-12-3-4-7-7-12-9-5-3-11-4-18-6l1-21c0-1 0-1 0-1 0-1-1-1-1-1 0-1-1-1-2-1-1 0-2-1-3-1-2 0-3 0-4 0-1 0-1 0-2 0 0 1-1 1-1 1 0 1 0 1 0 2l-1 21c-3 0-6 0-9 0-2 1-5 1-7 2-2 0-4 1-6 1-1 1-2 1-3 2-1 1-2 1-2 2 0 2-1 3-1 5 0 1 0 3 0 4 0 1 0 1 0 2 0 1 1 1 1 1 0 1 1 1 1 1 1 0 3 0 4-1 2-1 4-2 7-2 3-1 6-2 10-2 4-1 8-1 13 0 10 1 16 4 21 8 4 5 6 10 5 16-1 4-2 7-4 9-2 3-5 5-8 6-3 2-6 3-10 4-4 0-8 1-12 2-4 1-8 2-12 3-4 2-7 3-11 6-3 2-6 5-8 8-2 4-4 8-4 14-1 4-1 8 0 12 1 4 3 8 6 11 2 3 6 6 10 9 5 2 10 4 16 5l-1 20c0 0 0 1 0 1 0 1 1 1 1 1 1 1 1 1 2 1 1 0 2 0 3 1 2 0 3 0 4 0 1 0 1 0 2-1 1 0 1 0 1 0 0-1 0-1 0-2l1-20c2 0 4 0 6 0 2 0 4 0 6-1 2 0 4-1 6-1 1-1 2-1 3-2 1 0 1-1 1-1 1 0 1-1 1-1 0-1 0-2 1-2 0-1 0-2 0-3 0-1 0-2 0-3 0-1 0-2 0-3 0 0 0-1 0-1-1 0-1 0-2 0 0 0-1 0-3 0-2 1-4 2-6 2-3 1-6 2-9 2-3 1-7 0-11 0-4-1-8-2-11-3-3-1-5-2-7-4-2-2-3-4-3-6-1-3-1-5-1-8 1-4 2-7 4-9 2-2 5-4 8-6 3-1 7-2 11-3 4-1 8-2 12-3 4-1 8-2 12-3 4-1 7-3 10-5 4-2 6-5 9-9 2-3 4-8 4-13z m-33-137l-20 0c-14 0-26 11-26 25l0 2c-11 3-21 7-31 13l-2-1c-9-10-26-10-35 0l-15 15c-10 9-10 25 0 35l1 2c-6 10-10 20-13 31l-2 0c-14 0-25 12-25 26l0 20c0 14 11 26 25 26l2 0c3 11 7 21 13 31l-1 2c-10 9-10 25 0 35l15 15c9 10 26 10 35 0l2-1c10 6 20 10 31 13l0 2c0 14 12 25 25 25l21 0c14 0 26-11 26-25l0-2c11-3 21-7 31-13l2 1c9 10 26 10 35 0l15-15c10-10 10-26 0-35l-1-2c6-10 10-20 13-31l2 0c14 0 25-12 25-26l0-20c0-14-11-26-25-26l-2 0c-3-11-7-21-13-31l1-2c10-10 10-26 0-35l-15-15c-9-10-26-10-35 0l-2 1c-10-6-20-10-31-13l0-2c0-14-12-25-26-25z m-80 67l7-4c12-9 26-14 40-17l9-2 0-19c0-2 1-4 4-4l20 0c3 0 4 2 4 4l0 19 9 2c14 3 28 8 40 17l7 4 14-13c2-2 3-2 5 0l15 15c2 1 2 4 0 5l-13 14 4 7c9 12 14 26 17 40l2 9 19 0c2 0 4 1 4 4l0 20c0 3-2 4-4 4l-19 0-2 9c-3 14-8 28-17 40l-4 7 13 14c2 1 2 4 0 5l-15 15c-2 2-3 2-5 0l-14-13-7 4c-12 9-26 14-40 17l-9 2 0 19c0 2-1 4-4 4l-20 0c-3 0-4-2-4-4l0-19-9-2c-14-3-28-8-40-17l-7-4-14 13c-2 2-3 2-5 0l-15-15c-2-1-2-4 0-5l13-14-4-7c-9-12-14-26-17-40l-2-9-19 0c-2 0-4-1-4-4l0-20c0-3 2-4 4-4l19 0 2-9c3-14 8-28 17-40l4-7-13-14c-2-1-2-4 0-5l15-15c2-2 3-2 5 0z"/>
<glyph unicode="&#85;" d="M8 501l21 0 0-490-21 0z m57 0l43 0 0-393-43 0z m78 0l22 0 0-393-22 0z m63 0l32 0 0-393-32 0z m73 0l22 0 0-393-22 0z m47 0l64 0 0-393-64 0z m89 0l21 0 0-393-21 0z m68 0l21 0 0-490-21 0z m-377-448c0-27-10-42-28-42-15 0-26 14-26 41 0 26 12 41 28 41 17 0 26-15 26-40z m-43-2c0-20 6-32 16-32 11 0 16 13 16 33 0 20-5 33-16 33-9 0-16-12-16-34z m85 31l0 0-14-8-2 8 17 10 10 0 0-80-11 0z m48-70l0 7 9 8c20 19 29 30 29 42 0 8-4 15-15 15-8 0-14-4-17-7l-4 8c6 5 14 8 23 8 17 0 24-12 24-23 0-15-11-27-27-43l-7-6 0 0 36 0 0-9z m74 12c3-2 10-5 18-5 14 0 18 9 18 16 0 11-10 16-21 16l-6 0 0 8 6 0c8 0 18 4 18 13 0 7-4 12-14 12-6 0-12-2-16-5l-3 8c5 3 13 6 21 6 16 0 23-9 23-19 0-8-5-15-15-19l0 0c10-2 18-9 18-20 0-13-10-24-29-24-9 0-17 2-21 5z m103-12l0 22-37 0 0 7 35 51 12 0 0-50 11 0 0-8-11 0 0-22z m0 30l0 27c0 4 0 8 0 12l0 0c-3-4-5-8-7-11l-20-28 0 0 27 0z m85 41l-30 0-3-21c2 0 3 1 6 1 6 0 13-2 18-5 6-3 11-10 11-20 0-16-12-27-30-27-8 0-16 2-20 5l3 8c3-2 10-5 17-5 10 0 19 7 19 18 0 10-7 17-23 17-4 0-8 0-11-1l5 39 38 0z"/>
<glyph unicode="&#86;" d="M310 69l-299 0c-6 0-11 5-11 10l0 257c0 6 5 10 11 10l161 0c2 0 4 0 6-1l47-33 208 0c6 0 11-4 11-10l0-108c0-6-5-11-11-11-6 0-11 5-11 11l0 97-200 0c-2 0-4 1-6 2l-47 32-148 0 0-235 289 0c6 0 10-5 10-11 0-5-4-10-10-10z m68 222c-1 0-2 0-3 1-6 1-9 7-7 13l31 105-283 78-47-155c-1-6-7-9-13-7-6 1-9 7-7 13l49 165c2 6 8 9 13 8l304-84c3-1 5-3 6-5 2-3 2-6 1-9l-34-115c-1-5-6-8-10-8z m-24 79c-1 0-2 0-3 0l-213 59c-6 2-9 8-8 14 2 5 8 9 13 7l214-59c5-2 9-8 7-13-1-5-5-8-10-8z m-18-52c-1 0-2 0-3 1l-213 59c-6 1-9 7-8 13 2 6 8 9 13 7l214-59c5-1 9-7 7-13-1-5-5-8-10-8z m70-318c-59 0-107 46-107 103 0 57 48 103 107 103 58 0 106-46 106-103 0-57-48-103-106-103z m0 185c-47 0-86-37-86-82 0-45 39-82 86-82 46 0 85 37 85 82 0 45-39 82-85 82z m0-103c-6 0-11 5-11 11l0 61c0 6 5 11 11 11 6 0 10-5 10-11l0-61c0-6-4-11-10-11z m-1-40c-5 0-10 4-10 10l0 9c0 6 4 11 10 11 0 0 0 0 0 0 6 0 11-5 11-11l0-9c0-6-5-10-10-10 0 0-1 0-1 0z"/>
<glyph unicode="&#87;" d="M310 69l-299 0c-6 0-11 5-11 10l0 257c0 6 5 10 11 10l161 0c2 0 4 0 6-1l47-33 208 0c6 0 11-4 11-10l0-108c0-6-5-11-11-11-6 0-11 5-11 11l0 97-200 0c-2 0-4 1-6 2l-47 32-148 0 0-235 289 0c6 0 10-5 10-11 0-5-4-10-10-10z m68 222c-1 0-2 0-3 1-6 1-9 7-7 13l31 105-283 78-47-155c-1-6-7-9-13-7-6 1-9 7-7 13l49 165c2 6 8 9 13 8l304-84c3-1 5-3 6-5 2-3 2-6 1-9l-34-115c-1-5-6-8-10-8z m-24 79c-1 0-2 0-3 0l-213 59c-6 2-9 8-8 14 2 5 8 9 13 7l214-59c5-2 9-8 7-13-1-5-5-8-10-8z m-18-52c-1 0-2 0-3 1l-213 59c-6 1-9 7-8 13 2 6 8 9 13 7l214-59c5-1 9-7 7-13-1-5-5-8-10-8z m70-318c-59 0-107 46-107 103 0 57 48 103 107 103 58 0 106-46 106-103 0-57-48-103-106-103z m0 185c-47 0-86-37-86-82 0-45 39-82 86-82 46 0 85 37 85 82 0 45-39 82-85 82z m-15-126c-3 0-5 1-7 3l-38 33c-4 4-4 11-1 15 4 5 11 5 16 1l29-27 60 60c4 4 11 4 15 0 4-4 4-11 0-15l-67-67c-2-2-5-3-7-3z"/>
<glyph unicode="&#88;" d="M285 92l-232 0c-29 0-53 24-53 53l0 156c0 30 24 54 53 54l232 0c29 0 53-24 53-54l0-156c0-29-24-53-53-53z m-232 241c-17 0-32-14-32-32l0-156c0-18 15-32 32-32l232 0c17 0 32 14 32 32l0 156c0 18-15 32-32 32z m178-283l-114 0c-6 0-11 5-11 10 0 6 5 11 11 11l114 0c6 0 11-5 11-11 0-5-5-10-11-10z m-57 5c-6 0-11 5-11 11l0 36c0 6 5 11 11 11 6 0 11-5 11-11l0-36c0-6-5-11-11-11z m285-5l-49 0c-30 0-54 24-54 53l0 306c0 29 24 53 54 53l49 0c29 0 53-24 53-53l0-306c0-29-24-53-53-53z m-49 391c-18 0-32-14-32-32l0-306c0-18 14-32 32-32l49 0c17 0 32 14 32 32l0 306c0 18-15 32-32 32z m49-76l-50 0c-6 0-11 5-11 11 0 6 5 10 11 10l50 0c6 0 11-4 11-10 0-6-5-11-11-11z m0-54l-50 0c-6 0-11 5-11 11 0 6 5 11 11 11l50 0c6 0 11-5 11-11 0-6-5-11-11-11z m0-53l-50 0c-6 0-11 5-11 11 0 5 5 10 11 10l50 0c6 0 11-5 11-10 0-6-5-11-11-11z m-12-121c0-7-6-13-13-13-7 0-13 6-13 13 0 7 6 13 13 13 7 0 13-6 13-13z"/>
<glyph unicode="&#89;" d="M313 51l-302 0c-6 0-11 5-11 11l0 439c0 6 5 11 11 11l339 0c6 0 11-5 11-11l0-320c0-6-5-10-11-10-6 0-11 4-11 10l0 310-318 0 0-419 292 0c6 0 11-4 11-10 0-6-5-11-11-11z m-38 359l-189 0c-6 0-11 5-11 11 0 5 5 10 11 10l189 0c6 0 10-5 10-10 0-6-4-11-10-11z m0-70l-189 0c-6 0-11 5-11 11 0 6 5 11 11 11l189 0c6 0 10-5 10-11 0-6-4-11-10-11z m0-69l-189 0c-6 0-11 5-11 11 0 5 5 10 11 10l189 0c6 0 10-5 10-10 0-6-4-11-10-11z m0-70l-189 0c-6 0-11 5-11 11 0 6 5 11 11 11l189 0c6 0 10-5 10-11 0-6-4-11-10-11z m0-69l-189 0c-6 0-11 5-11 10 0 6 5 11 11 11l189 0c6 0 10-5 10-11 0-5-4-10-10-10z m129-132c-59 0-108 47-108 104 0 57 49 104 108 104 60 0 108-47 108-104 0-57-48-104-108-104z m0 186c-47 0-86-37-86-82 0-46 39-83 86-83 48 0 87 37 87 83 0 45-39 82-87 82z m34-127c-3 0-5 2-7 4l-68 67c-4 4-4 11 0 15 4 4 11 4 15 0l68-67c4-4 4-11 0-15-2-2-5-4-8-4z m-68 0c-2 0-5 2-7 4-4 4-4 11 0 15l68 67c4 4 11 4 15 0 4-4 4-11 0-15l-68-67c-2-2-5-4-8-4z"/>
<glyph unicode="&#90;" d="M313 51l-302 0c-6 0-11 5-11 11l0 439c0 6 5 11 11 11l339 0c6 0 11-5 11-11l0-320c0-6-5-10-11-10-6 0-11 4-11 10l0 310-318 0 0-419 292 0c6 0 11-4 11-10 0-6-5-11-11-11z m-38 359l-189 0c-6 0-11 5-11 11 0 5 5 10 11 10l189 0c6 0 10-5 10-10 0-6-4-11-10-11z m0-70l-189 0c-6 0-11 5-11 11 0 6 5 11 11 11l189 0c6 0 10-5 10-11 0-6-4-11-10-11z m0-69l-189 0c-6 0-11 5-11 11 0 5 5 10 11 10l189 0c6 0 10-5 10-10 0-6-4-11-10-11z m0-70l-189 0c-6 0-11 5-11 11 0 6 5 11 11 11l189 0c6 0 10-5 10-11 0-6-4-11-10-11z m0-69l-189 0c-6 0-11 5-11 10 0 6 5 11 11 11l189 0c6 0 10-5 10-11 0-5-4-10-10-10z m129-132c-59 0-108 47-108 104 0 57 49 104 108 104 60 0 108-47 108-104 0-57-48-104-108-104z m0 186c-47 0-86-37-86-82 0-46 39-83 86-83 48 0 87 37 87 83 0 45-39 82-87 82z m-48-93c-6 0-10 5-10 11 0 6 4 10 10 10l96 1c0 0 0 0 0 0 6 0 11-5 11-11 0-6-5-11-11-11l-96 0c0 0 0 0 0 0z"/>
<glyph unicode="&#48;" d="M473 50l-434 0c-21 0-39 18-39 39l0 274c0 21 18 39 39 39l434 0c21 0 39-18 39-39l0-274c0-21-18-39-39-39z m-434 330c-10 0-18-8-18-17l0-274c0-10 8-18 18-18l434 0c10 0 18 8 18 18l0 274c0 9-8 17-18 17z m394-118l-133 0c-5 0-10 5-10 11 0 6 5 10 10 10l133 0c6 0 11-4 11-10 0-6-5-11-11-11z m0-82l-133 0c-5 0-10 4-10 10 0 6 5 11 10 11l133 0c6 0 11-5 11-11 0-6-5-10-11-10z m-282 61c-29 0-53 24-53 54 0 29 24 53 53 53 14 0 28-5 38-15 10-11 15-24 15-38 0-30-24-54-53-54z m0 86c-18 0-32-15-32-32 0-18 14-32 32-32 18 0 32 14 32 32 0 17-14 32-32 32z m102-222l-204 0c-6 0-11 5-11 11 0 62 51 113 113 113 62 0 113-51 113-113 0-6-5-11-11-11z m-193 22l182 0c-5 45-44 81-91 81-47 0-86-36-91-81z m196 219c-6 0-11 4-11 10l0 95c0 6 5 11 11 11 6 0 11-5 11-11l0-95c0-6-5-10-11-10z"/>
<glyph unicode="&#49;" d="M378 291c-1 0-2 0-3 1-6 1-9 7-7 13l31 105-283 78-47-155c-1-6-7-9-13-7-6 1-9 7-7 13l49 165c2 6 8 9 13 8l304-84c3-1 5-3 6-5 2-3 2-6 1-9l-34-115c-1-5-6-8-10-8z m-24 79c-1 0-2 0-3 0l-213 59c-6 2-9 8-8 14 2 5 8 9 13 7l214-59c5-2 9-8 7-13-1-5-5-8-10-8z m52-370c-59 0-107 46-107 103 0 57 48 103 107 103 58 0 106-46 106-103 0-57-48-103-106-103z m0 185c-47 0-86-37-86-82 0-45 39-82 86-82 46 0 85 37 85 82 0 45-39 82-85 82z m-12-107l0 4c-1 10 2 20 11 30 7 10 12 16 12 24 0 9-6 15-17 15-6 0-13-2-17-5l-4 11c5 4 15 7 24 7 20 0 29-13 29-26 0-12-6-20-14-30-8-9-11-17-10-26l0-4-14 0z m-4-24c0 6 5 10 11 10 6 0 10-4 10-10 0-7-4-11-10-11-6 0-11 4-11 11z m-80 15l-299 0c-6 0-11 5-11 10l0 257c0 6 5 10 11 10l161 0c2 0 4 0 6-1l47-33 208 0c6 0 11-4 11-10l0-108c0-6-5-11-11-11-6 0-11 5-11 11l0 97-200 0c-2 0-4 1-6 2l-47 32-148 0 0-235 289 0c6 0 10-5 10-11 0-5-4-10-10-10z m26 249c-1 0-2 0-3 1l-213 59c-6 1-9 7-8 13 2 6 8 9 13 7l214-59c5-1 9-7 7-13-1-5-5-8-10-8z"/>
<glyph unicode="&#50;" d="M459 0l-406 0c-29 0-53 24-53 53l0 337c0 29 24 53 53 53l406 0c29 0 53-24 53-53l0-337c0-29-24-53-53-53z m-406 422c-17 0-32-15-32-32l0-337c0-17 15-32 32-32l406 0c17 0 32 15 32 32l0 337c0 17-15 32-32 32z m41-91l-83 0c-6 0-11 5-11 11 0 6 5 10 11 10l72 0 0 80c0 6 5 11 11 11 6 0 11-5 11-11l0-90c0-6-5-11-11-11z m407 0l-83 0c-6 0-11 5-11 11l0 90c0 6 5 11 11 11 6 0 11-5 11-11l0-80 72 0c6 0 11-4 11-10 0-6-5-11-11-11z m-407-331c-6 0-11 5-11 11l0 80-72 0c-6 0-11 4-11 10 0 6 5 11 11 11l83 0c6 0 11-5 11-11l0-90c0-6-5-11-11-11z m324 0c-6 0-11 5-11 11l0 90c0 6 5 11 11 11l83 0c6 0 11-5 11-11 0-6-5-10-11-10l-72 0 0-80c0-6-5-11-11-11z m-70 422c-6 0-11 4-11 10l0 35c0 13-17 24-37 24l-88 0c-20 0-37-12-37-24l0-35c0-6-5-10-11-10-6 0-10 4-10 10l0 35c0 25 26 45 58 45l88 0c32 0 58-20 58-45l0-35c0-6-4-10-10-10z"/>
<glyph unicode="&#51;" d="M130 330c-57 0-104 35-104 79 0 44 47 80 104 80 58 0 105-36 105-80 0-44-47-79-105-79z m0 138c-46 0-83-26-83-59 0-32 37-58 83-58 46 0 84 26 84 58 0 33-38 59-84 59z m252-138c-57 0-104 35-104 79 0 44 47 80 104 80 58 0 105-36 105-80 0-44-47-79-105-79z m0 138c-46 0-83-26-83-59 0-32 37-58 83-58 46 0 84 26 84 58 0 33-38 59-84 59z m-334-25l-37 0c-6 0-11 5-11 10 0 6 5 11 11 11l37 0c6 0 11-5 11-11 0-5-5-10-11-10z m256 0l-99 0c-6 0-10 5-10 10 0 6 4 11 10 11l99 0c6 0 11-5 11-11 0-5-5-10-11-10z m197 0l-37 0c-6 0-11 5-11 10 0 6 5 11 11 11l37 0c6 0 11-5 11-11 0-5-5-10-11-10z m-170-420c-8 0-16 0-25 1 0 0-1 1-2 1-4 1-37 13-56 33-20-20-53-32-57-33-1 0-2-1-2-1-8-1-17-1-25-1-84 0-118 52-120 54-2 3-2 8 0 11 2 4 7 6 11 5 0 0 9-1 21-1 24 0 58 5 81 28 16 16 33 24 52 24 17 0 31-6 39-11 7 5 21 11 38 11 19 0 36-8 52-24 23-23 57-28 81-28 12 0 21 1 21 1 4 1 9-1 11-5 2-3 2-8 0-11-1-2-36-54-120-54z m-21 22c7 0 14-1 21-1 41 0 68 14 84 26-28 1-65 8-92 35-12 12-24 18-37 18-18 0-32-11-32-11-4-3-9-3-13 0 0 0-14 11-32 11-13 0-25-6-37-18-27-27-64-34-92-35 16-12 43-26 84-26 7 0 14 1 21 1 13 5 45 19 53 36 2 4 5 6 10 6 4 0 7-2 9-6 8-17 40-31 53-36z"/>
<glyph unicode="&#52;" d="M294 38c-6 0-10 5-10 11 0 6 4 11 10 11 109 0 197 88 197 196 0 108-88 196-197 196-6 0-10 5-10 11 0 6 4 11 10 11 120 0 218-98 218-218 0-120-98-218-218-218z m0 0c-6 0-10 5-10 11 0 6 4 11 10 11 56 0 104 90 104 196 0 106-48 196-104 196-6 0-10 5-10 11 0 6 4 11 10 11 70 0 125-96 125-218 0-122-55-218-125-218z m0 2c-6 0-10 4-10 10l0 412c0 6 4 10 10 10 6 0 11-4 11-10l0-412c0-6-5-10-11-10z m206 205l-206 0c-6 0-10 5-10 11 0 6 4 11 10 11l206 0c6 0 11-5 11-11 0-6-5-11-11-11z m-30 108l-174 0c-6 0-10 4-10 10 0 6 4 11 10 11l174 0c6 0 11-5 11-11 0-6-5-10-11-10z m0-215l-174 0c-6 0-10 5-10 11 0 6 4 10 10 10l174 0c6 0 11-4 11-10 0-6-5-11-11-11z m-221-138l-193 0c-31 0-56 29-56 64l0 384c0 35 25 64 56 64l193 0c31 0 56-29 56-64l0-384c0-35-25-64-56-64z m-193 491c-19 0-35-20-35-43l0-384c0-23 16-43 35-43l193 0c19 0 35 20 35 43l0 384c0 23-16 43-35 43z m200-418l-207 0c-6 0-10 4-10 10l0 346c0 6 4 10 10 10l207 0c6 0 10-4 10-10l0-346c0-6-4-10-10-10z m-196 21l185 0 0 324-185 0z m118 355l-62 0c-6 0-11 5-11 11 0 6 5 11 11 11l62 0c6 0 11-5 11-11 0-6-5-11-11-11z m-80-408l-30 0c-6 0-11 5-11 11 0 6 5 11 11 11l30 0c6 0 11-5 11-11 0-6-5-11-11-11z m70 0l-31 0c-6 0-10 5-10 11 0 6 4 11 10 11l31 0c6 0 10-5 10-11 0-6-4-11-10-11z m69 0l-30 0c-6 0-11 5-11 11 0 6 5 11 11 11l30 0c6 0 11-5 11-11 0-6-5-11-11-11z m-18 75l-139 0c-5 0-10 5-10 11 0 6 5 11 10 11l139 0c6 0 11-5 11-11 0-6-5-11-11-11z m-128 32c-6 0-11 5-11 10l0 45c0 6 5 11 11 11 6 0 11-5 11-11l0-45c0-5-5-10-11-10z m56 0c-6 0-11 5-11 10l0 145c0 6 5 11 11 11 6 0 11-5 11-11l0-145c0-5-5-10-11-10z m56 0c-6 0-11 5-11 10l0 228c0 6 5 10 11 10 6 0 11-4 11-10l0-228c0-5-5-10-11-10z"/>
<glyph unicode="&#53;" d="M313 51l-302 0c-6 0-11 5-11 11l0 439c0 6 5 11 11 11l339 0c6 0 11-5 11-11l0-320c0-6-5-10-11-10-6 0-11 4-11 10l0 310-318 0 0-419 292 0c6 0 11-4 11-10 0-6-5-11-11-11z m-38 359l-189 0c-6 0-11 5-11 11 0 5 5 10 11 10l189 0c6 0 10-5 10-10 0-6-4-11-10-11z m0-70l-189 0c-6 0-11 5-11 11 0 6 5 11 11 11l189 0c6 0 10-5 10-11 0-6-4-11-10-11z m0-69l-189 0c-6 0-11 5-11 11 0 5 5 10 11 10l189 0c6 0 10-5 10-10 0-6-4-11-10-11z m0-70l-189 0c-6 0-11 5-11 11 0 6 5 11 11 11l189 0c6 0 10-5 10-11 0-6-4-11-10-11z m0-69l-189 0c-6 0-11 5-11 10 0 6 5 11 11 11l189 0c6 0 10-5 10-11 0-5-4-10-10-10z m129-132c-59 0-108 47-108 104 0 57 49 104 108 104 60 0 108-47 108-104 0-57-48-104-108-104z m0 186c-47 0-86-37-86-82 0-46 39-83 86-83 48 0 87 37 87 83 0 45-39 82-87 82z m0-141c-6 0-10 5-10 11l-1 96c0 6 5 10 11 10 0 0 0 0 0 0 6 0 11-4 11-10l0-96c0-6-5-11-11-11 0 0 0 0 0 0z m48 48c0 0 0 0 0 0l-96 0c-6 0-10 5-10 11 0 6 4 11 10 11 0 0 0 0 0 0l96-1c6 0 11-4 11-10 0-6-5-11-11-11z"/>
<glyph unicode="&#54;" d="M313 51l-302 0c-6 0-11 5-11 11l0 439c0 6 5 11 11 11l339 0c6 0 11-5 11-11l0-320c0-6-5-10-11-10-6 0-11 4-11 10l0 310-318 0 0-419 292 0c6 0 11-4 11-10 0-6-5-11-11-11z m-38 359l-189 0c-6 0-11 5-11 11 0 5 5 10 11 10l189 0c6 0 10-5 10-10 0-6-4-11-10-11z m0-70l-189 0c-6 0-11 5-11 11 0 6 5 11 11 11l189 0c6 0 10-5 10-11 0-6-4-11-10-11z m0-69l-189 0c-6 0-11 5-11 11 0 5 5 10 11 10l189 0c6 0 10-5 10-10 0-6-4-11-10-11z m0-70l-189 0c-6 0-11 5-11 11 0 6 5 11 11 11l189 0c6 0 10-5 10-11 0-6-4-11-10-11z m0-69l-189 0c-6 0-11 5-11 10 0 6 5 11 11 11l189 0c6 0 10-5 10-11 0-5-4-10-10-10z m129-132c-59 0-108 47-108 104 0 57 49 104 108 104 60 0 108-47 108-104 0-57-48-104-108-104z m0 186c-47 0-86-37-86-82 0-46 39-83 86-83 48 0 87 37 87 83 0 45-39 82-87 82z m0-103c-6 0-10 4-10 10l0 62c0 6 4 11 10 11 6 0 11-5 11-11l0-62c0-6-5-10-11-10z m0-41c-6 0-10 5-11 11l0 9c0 6 5 10 11 11 6-1 11-5 11-11l0-9c0-6-5-11-11-11 0 0 0 0 0 0z"/>
<glyph unicode="&#55;" d="M501 8l-490 0c-6 0-11 5-11 11l0 279c0 6 5 11 11 11l490 0c6 0 11-5 11-11l0-279c0-6-5-11-11-11z m-480 21l470 0 0 259-470 0z m40 259c-3 0-5 1-8 3-4 4-4 11 0 15l195 195c2 2 5 3 8 3 3 0 6-1 8-3l195-195c4-4 4-11 0-15-5-4-11-4-16 0l-187 187-187-187c-3-2-5-3-8-3z m-4-177c8-5 20-9 32-9 18 0 29 10 29 24 0 13-8 20-26 27-23 8-36 20-36 39 0 22 17 37 44 37 14 0 24-3 30-6l-4-15c-5 3-14 7-27 7-18 0-25-11-25-21 0-13 8-19 27-26 23-9 35-21 35-41 0-21-16-39-48-39-13 0-28 3-35 8z m126 22l-15-43-18 0 47 137 21 0 47-137-19 0-15 43z m45 14l-14 39c-3 9-5 18-7 26l0 0c-2-9-5-17-7-25l-14-40z m57 80l18 0 0-123 59 0 0-14-77 0z m168-73l-53 0 0-50 59 0 0-14-77 0 0 137 74 0 0-15-56 0 0-43 53 0z"/>
<glyph unicode="&#56;" d="M313 51l-302 0c-6 0-11 5-11 11l0 439c0 6 5 11 11 11l339 0c6 0 11-5 11-11l0-320c0-6-5-10-11-10-6 0-11 4-11 10l0 310-318 0 0-419 292 0c6 0 11-4 11-10 0-6-5-11-11-11z m-38 359l-189 0c-6 0-11 5-11 11 0 5 5 10 11 10l189 0c6 0 10-5 10-10 0-6-4-11-10-11z m0-70l-189 0c-6 0-11 5-11 11 0 6 5 11 11 11l189 0c6 0 10-5 10-11 0-6-4-11-10-11z m0-69l-189 0c-6 0-11 5-11 11 0 5 5 10 11 10l189 0c6 0 10-5 10-10 0-6-4-11-10-11z m0-70l-189 0c-6 0-11 5-11 11 0 6 5 11 11 11l189 0c6 0 10-5 10-11 0-6-4-11-10-11z m0-69l-189 0c-6 0-11 5-11 10 0 6 5 11 11 11l189 0c6 0 10-5 10-11 0-5-4-10-10-10z m129-132c-59 0-108 47-108 104 0 57 49 104 108 104 60 0 108-47 108-104 0-57-48-104-108-104z m0 186c-47 0-86-37-86-82 0-46 39-83 86-83 48 0 87 37 87 83 0 45-39 82-87 82z m-15-126c-2 0-5 1-7 2l-37 34c-4 4-5 11-1 15 4 4 11 5 15 1l30-27 60 60c4 4 11 4 15 0 4-4 4-11 0-15l-67-67c-2-2-5-3-8-3z"/>
<glyph unicode="&#57;" d="M256 156c-35 0-63 28-63 63 0 35 28 63 63 63 35 0 63-28 63-63 0-35-28-63-63-63z m0 105c-23 0-42-19-42-42 0-23 19-42 42-42 23 0 42 19 42 42 0 23-19 42-42 42z m122-261l-244 0 0 11c0 72 55 131 122 131 67 0 122-59 122-131z m-222 21l200 0c-5 56-48 99-100 99-52 0-95-43-100-99z m-73 401c-25 0-45 20-45 45 0 25 20 45 45 45 24 0 45-20 45-45 0-25-21-45-45-45z m0 69c-13 0-24-11-24-24 0-13 11-24 24-24 13 0 23 11 23 24 0 13-10 24-23 24z m83-171l-167 0 0 10c0 50 38 90 84 90 46 0 83-40 83-90z m-145 21l123 0c-5 33-30 58-61 58-31 0-57-25-62-58z m408 81c-24 0-45 20-45 45 0 25 21 45 45 45 25 0 45-20 45-45 0-25-20-45-45-45z m0 69c-13 0-23-11-23-24 0-13 10-24 23-24 13 0 24 11 24 24 0 13-11 24-24 24z m84-171l-167 0 0 10c0 50 37 90 83 90 46 0 84-40 84-90z m-145 21l123 0c-5 33-31 58-62 58-31 0-56-25-61-58z m-212-187l-94 0 0 140c0 5 5 10 11 10 5 0 10-5 10-10l0-119 73 0c5 0 10-5 10-11 0-6-5-10-10-10z m294 0l-94 0c-5 0-10 4-10 10 0 6 5 11 10 11l73 0 0 119c0 5 4 10 10 10 6 0 11-5 11-10z"/>
<glyph unicode="&#33;" d="M459 0l-406 0c-29 0-53 24-53 53l0 406c0 29 24 53 53 53l406 0c29 0 53-24 53-53l0-406c0-29-24-53-53-53z m-406 491c-18 0-32-14-32-32l0-406c0-18 14-32 32-32l406 0c18 0 32 14 32 32l0 406c0 18-14 32-32 32z m358-169l-310 0c-6 0-10 5-10 11l0 168c0 6 4 11 10 11l310 0c6 0 10-5 10-11l0-168c0-6-4-11-10-11z m-299 22l288 0 0 147-288 0z m144-296c-69 0-126 56-126 126 0 69 57 125 126 125 69 0 126-56 126-125 0-70-57-126-126-126z m0 230c-58 0-104-47-104-104 0-58 46-105 104-105 58 0 104 47 104 105 0 57-46 104-104 104z m0-161c-31 0-57 25-57 57 0 31 26 57 57 57 31 0 57-26 57-57 0-32-26-57-57-57z m0 92c-20 0-35-16-35-35 0-20 15-36 35-36 20 0 35 16 35 36 0 19-15 35-35 35z"/>
<glyph unicode="&#34;" d="M313 51l-302 0c-6 0-11 5-11 11l0 439c0 6 5 11 11 11l339 0c6 0 11-5 11-11l0-320c0-6-5-10-11-10-6 0-11 4-11 10l0 310-318 0 0-419 292 0c6 0 11-4 11-10 0-6-5-11-11-11z m-38 359l-189 0c-6 0-11 5-11 11 0 5 5 10 11 10l189 0c6 0 10-5 10-10 0-6-4-11-10-11z m0-70l-189 0c-6 0-11 5-11 11 0 6 5 11 11 11l189 0c6 0 10-5 10-11 0-6-4-11-10-11z m0-69l-189 0c-6 0-11 5-11 11 0 5 5 10 11 10l189 0c6 0 10-5 10-10 0-6-4-11-10-11z m0-70l-189 0c-6 0-11 5-11 11 0 6 5 11 11 11l189 0c6 0 10-5 10-11 0-6-4-11-10-11z m0-69l-189 0c-6 0-11 5-11 10 0 6 5 11 11 11l189 0c6 0 10-5 10-11 0-5-4-10-10-10z m129-132c-59 0-108 47-108 104 0 57 49 104 108 104 60 0 108-47 108-104 0-57-48-104-108-104z m0 186c-47 0-86-37-86-82 0-46 39-83 86-83 48 0 87 37 87 83 0 45-39 82-87 82z m-11-108l0 5c-1 9 2 20 10 30 8 9 12 16 12 24 0 9-5 15-16 15-6 0-13-2-18-6l-4 11c6 4 16 7 25 7 20 0 29-12 29-25 0-12-7-21-15-31-7-9-10-16-10-25l0-5-13 0z m-4-24c0 7 4 11 11 11 6 0 10-4 10-11 0-6-4-11-11-11-6 0-10 5-10 11z"/>
<glyph unicode="&#35;" d="M329 54l-318 0c-6 0-11 5-11 11l0 436c0 6 5 11 11 11l334 0c6 0 11-5 11-11l0-279c0-6-5-10-11-10-5 0-10 4-10 10l0 269-314 0 0-415 308 0c6 0 11-5 11-11 0-6-5-11-11-11z m69-54c-5 0-10 4-11 9 0 3-4 5-15 10-17 8-42 19-62 56-18 33-26 131-26 135 0 4 1 7 4 9 2 2 6 3 9 2 5-1 11-2 16-2 47 0 75 53 75 53 2 4 6 6 10 6 4 0 7-2 9-6 1 0 29-53 76-53 5 0 10 1 16 2 3 1 7 0 9-2 3-2 4-5 4-9 0-4-8-102-26-135-20-37-46-48-62-56-11-5-15-7-16-10-1-5-5-9-10-9z m-92 198c4-33 11-92 22-112 17-31 37-40 53-47 6-3 12-6 17-10 5 4 11 7 17 10 16 7 35 16 52 47 12 20 19 79 23 112-3 0-5 0-7 0-42 0-71 31-85 50-14-19-43-50-85-50-2 0-4 0-7 0z m-35 212l-186 0c-6 0-11 5-11 11 0 6 5 11 11 11l186 0c6 0 11-5 11-11 0-6-5-11-11-11z m0-69l-186 0c-6 0-11 5-11 11 0 6 5 11 11 11l186 0c6 0 11-5 11-11 0-6-5-11-11-11z m0-69l-186 0c-6 0-11 5-11 11 0 6 5 11 11 11l186 0c6 0 11-5 11-11 0-6-5-11-11-11z m0-69l-186 0c-6 0-11 5-11 11 0 6 5 11 11 11l186 0c6 0 11-5 11-11 0-6-5-11-11-11z m0-69l-186 0c-6 0-11 5-11 11 0 6 5 11 11 11l186 0c6 0 11-5 11-11 0-6-5-11-11-11z m172 11l-93 0c-6 0-10 5-10 10 0 6 4 11 10 11l93 0c6 0 11-5 11-11 0-5-5-10-11-10z m-12-49l-69 0c-6 0-11 5-11 11 0 5 5 10 11 10l69 0c6 0 11-5 11-10 0-6-5-11-11-11z"/>
<glyph unicode="&#36;" d="M440 0l-368 0c-6 0-11 5-11 11l0 429c0 6 5 11 11 11l368 0c6 0 11-5 11-11l0-429c0-6-5-11-11-11z m-357 21l346 0 0 409-346 0z m310 409c-3 0-6 1-8 3l-50 58-157 0-38-49c-3-5-10-6-14-2-5 3-6 10-3 15l41 53c2 2 5 4 9 4l167 0c3 0 6-1 8-4l53-61c4-4 4-11-1-15-2-1-4-2-7-2z m-81-423c-1 0-2 1-4 1-4 2-7 6-7 10l0 143c0 6 5 11 11 11l128 0c4 0 8-2 10-6 2-4 1-9-2-12l-128-143c-2-2-5-4-8-4z m11 144l0-105 93 105z m13 197l-149 0c-6 0-11 5-11 11 0 6 5 10 11 10l149 0c6 0 11-4 11-10 0-6-5-11-11-11z m0-67l-149 0c-6 0-11 5-11 11 0 6 5 11 11 11l149 0c6 0 11-5 11-11 0-6-5-11-11-11z m0-66l-149 0c-6 0-11 5-11 10 0 6 5 11 11 11l149 0c6 0 11-5 11-11 0-5-5-10-11-10z"/>
<glyph unicode="&#37;" d="M268 0l-257 0c-6 0-11 5-11 11l0 327c0 6 5 11 11 11l161 0c6 0 10-5 10-11 0-6-4-10-10-10l-151 0 0-307 237 0 0 169c0 6 5 11 10 11 6 0 11-5 11-11l0-179c0-6-5-11-11-11z m-84 261l-111 0c-6 0-11 5-11 11 0 6 5 11 11 11l111 0c6 0 11-5 11-11 0-6-5-11-11-11z m29-63l-140 0c-6 0-11 5-11 11 0 6 5 11 11 11l140 0c6 0 11-5 11-11 0-6-5-11-11-11z m0-62l-140 0c-6 0-11 4-11 10 0 6 5 11 11 11l140 0c6 0 11-5 11-11 0-6-5-10-11-10z m0-63l-140 0c-6 0-11 4-11 10 0 6 5 11 11 11l140 0c6 0 11-5 11-11 0-6-5-10-11-10z m128 93c-94 0-171 77-171 171 0 94 77 171 171 171 94 0 171-76 171-171 0-94-77-171-171-171z m0 321c-83 0-150-67-150-150 0-82 67-150 150-150 82 0 150 68 150 150 0 83-68 150-150 150z m-11 14l22 0 0-328-22 0z m18-153l153 0 0-22-153 0z"/>
<glyph unicode="&#38;" d="M468 132c-3 0-6 1-8 3l-84 90-173 0c-26 0-47 21-47 47l0 193c0 26 21 47 47 47l262 0c26 0 47-21 47-47l0-193c0-21-14-39-34-45l0-85c0-4-2-8-6-10-2 0-3 0-4 0z m-265 359c-14 0-25-12-25-26l0-193c0-14 11-25 25-25l178 0c3 0 6-2 8-4l68-73 0 66c0 6 4 10 10 11 13 1 24 12 24 25l0 193c0 14-12 26-26 26z m-159-491c-1 0-2 0-4 1-4 1-6 5-6 10l0 85c-20 5-34 23-34 44l0 194c0 25 21 46 47 46l120 0c6 0 11-4 11-10 0-6-5-11-11-11l-120 0c-14 0-26-11-26-25l0-194c0-13 11-24 24-25 6 0 10-5 10-10l0-67 68 73c2 3 5 4 8 4l178 0c14 0 25 11 25 25l0 96c0 6 5 11 11 11 6 0 11-5 11-11l0-96c0-26-21-46-47-46l-173 0-84-91c-2-2-5-3-8-3z m285 305l0 16c-9 0-19 3-24 7l3 10c6-3 14-6 23-6 11 0 19 6 19 15 0 9-6 14-18 19-16 6-26 13-26 27 0 13 9 23 24 25l0 16 10 0 0-15c9 0 16-3 20-5l-4-11c-3 2-10 6-20 6-12 0-16-8-16-14 0-8 6-12 19-18 16-7 25-15 25-29 0-12-9-24-25-27l0-16-10 0z m5-37c-56 0-101 46-101 102 0 56 45 101 101 101 56 0 102-45 102-101 0-56-46-102-102-102z m0 182c-44 0-80-36-80-80 0-45 36-81 80-81 44 0 80 36 80 81 0 44-36 80-80 80z"/>
<glyph unicode="&#39;" d="M256 236c-63 0-114 52-114 115 0 63 51 114 114 114 63 0 114-51 114-114 0-63-51-115-114-115z m0 208c-51 0-93-42-93-93 0-52 42-93 93-93 51 0 93 41 93 93 0 51-42 93-93 93z m0-278c-6 0-11 5-11 11 0 6 5 11 11 11 79 0 140 87 140 163 0 77-63 140-140 140-77 0-140-63-140-140 0-6-5-11-11-11-6 0-10 5-10 11 0 89 72 161 161 161 89 0 161-72 161-161 0-87-69-185-161-185z m220-166l-440 0c-6 0-11 5-11 11 0 70 61 134 151 158 4 1 7 1 10-2 3-2 4-6 3-9l-11-81 73 44c3 2 7 2 11 0l72-44-11 81c-1 3 0 7 3 9 3 3 6 3 10 2 90-24 151-88 151-158 0-6-5-11-11-11z m-429 21l418 0c-6 53-51 100-119 123l12-86c1-4-1-8-5-10-3-2-7-3-11 0l-86 51-86-51c-3-3-8-2-11 0-4 2-6 6-5 10l12 86c-68-23-113-70-119-123z m16 260c-6 0-11 5-11 11l0 77c0 5 5 10 11 10 5 0 10-5 10-10l0-77c0-6-5-11-10-11z m386 0c-5 0-10 5-10 11l0 77c0 5 5 10 10 10 6 0 11-5 11-10l0-77c0-6-5-11-11-11z m-193-137c-6 0-11 5-11 11l0 50c0 6 5 11 11 11 6 0 11-5 11-11l0-50c0-6-5-11-11-11z"/>
<glyph unicode="&#40;" d="M108 180c-3 0-5 0-8 1-6 2-11 6-14 12l-83 169c-6 12-2 27 10 33l218 113c9 5 24 5 34 0l90-48c10-6 17-19 16-31l-15-105c-1-11-10-23-19-28l-65-34c-5-2-11 0-14 5-3 5-1 12 5 14l64 34c3 2 7 8 8 12l14 104c1 4-2 8-4 10l-90 48c-4 2-11 2-14 0l-218-113c-2-1-2-3-1-4l83-169c1-1 2-2 2-2 1 0 1 0 2 0l18 10c6 3 12 1 15-5 2-5 0-11-5-14l-18-9c-3-2-7-3-11-3z m368-180l-315 0c-19 0-35 16-35 36l0 207c0 20 16 36 35 36l315 0c20 0 36-16 36-36l0-207c0-20-16-36-36-36z m-315 258c-8 0-14-7-14-15l0-207c0-8 6-15 14-15l315 0c8 0 15 7 15 15l0 207c0 8-7 15-15 15z m338-64l-360 0c-6 0-11 5-11 11 0 6 5 11 11 11l360 0c6 0 10-5 10-11 0-6-4-11-10-11z m0-60l-360 0c-6 0-11 5-11 11 0 6 5 10 11 10l360 0c6 0 10-4 10-10 0-6-4-11-10-11z m-180-88c-2-2-7-3-13-3-14 0-25 9-25 26 0 16 11 27 26 27 7 0 11-1 12-2l-1-5c-3 1-6 2-10 2-12 0-20-8-20-22 0-12 7-20 19-20 4 0 8 1 11 2z m22 14l-5-16-7 0 17 51 8 0 17-51-7 0-5 16z m17 5l-5 15c-1 3-2 7-3 10l0 0c-1-4-2-7-3-10l-5-15z m26 30c3 0 8 1 12 1 7 0 12-1 15-4 2-3 4-6 4-10 0-7-4-12-10-13l0-1c4-1 7-5 8-10 1-7 3-12 4-14l-7 0c-1 1-2 6-3 12-2 7-5 10-10 10l-7 0 0-22-6 0z m6-24l7 0c7 0 11 4 11 10 0 7-4 10-11 10-3 0-5-1-7-1z m39 24c4 0 9 1 14 1 10 0 16-2 21-7 4-4 7-10 7-18 0-9-3-15-8-20-4-5-12-8-22-8-5 0-8 1-12 1z m7-46c1 0 4 0 6 0 14 0 22 8 22 22 0 12-7 19-21 19-3 0-5 0-7 0z m30 312c-19 0-43 5-68 13-35 12-65 30-78 47-4 4-3 11 2 15 4 3 11 2 15-2 10-14 37-29 68-40 39-13 71-14 82-8 2 1 2 2 3 2 1 6-21 30-72 47-26 8-52 13-69 11-6-1-11 4-12 9 0 6 4 12 10 12 20 2 49-2 78-12 47-16 94-45 85-73-1-5-5-11-13-15-8-4-19-6-31-6z"/>
<glyph unicode="&#41;" d="M468 132c-3 0-6 1-8 3l-84 90-173 0c-26 0-47 21-47 47l0 193c0 26 21 47 47 47l262 0c26 0 47-21 47-47l0-193c0-21-14-39-34-45l0-85c0-4-2-8-6-10-2 0-3 0-4 0z m-265 359c-14 0-25-12-25-26l0-193c0-14 11-25 25-25l178 0c3 0 6-2 8-4l68-73 0 66c0 6 4 10 10 11 13 1 24 12 24 25l0 193c0 14-12 26-26 26z m-159-491c-1 0-2 0-4 1-4 1-6 5-6 10l0 85c-20 5-34 23-34 44l0 194c0 25 21 46 47 46l120 0c6 0 11-4 11-10 0-6-5-11-11-11l-120 0c-14 0-26-11-26-25l0-194c0-13 11-24 24-25 6 0 10-5 10-10l0-67 68 73c2 3 5 4 8 4l178 0c14 0 25 11 25 25l0 96c0 6 5 11 11 11 6 0 11-5 11-11l0-96c0-26-21-46-47-46l-173 0-84-91c-2-2-5-3-8-3z m391 418l-198 0c-5 0-10 4-10 10 0 6 5 11 10 11l198 0c6 0 11-5 11-11 0-6-5-10-11-10z m0-59l-198 0c-5 0-10 5-10 11 0 6 5 10 10 10l198 0c6 0 11-4 11-10 0-6-5-11-11-11z m0-59l-198 0c-5 0-10 5-10 11 0 6 5 11 10 11l198 0c6 0 11-5 11-11 0-6-5-11-11-11z"/>
<glyph unicode="&#42;" d="M406 0c-5 0-9 4-10 9-1 3-5 5-14 9-15 7-39 17-57 52-17 29-24 114-24 124-1 3 1 7 3 9 3 2 7 3 10 2 5-1 10-2 15-2 42 0 68 48 68 48 2 4 5 6 9 6 4 0 8-2 10-6 0 0 26-48 68-48 5 0 10 1 15 2 3 1 7 0 9-2 3-2 4-6 4-9-1-10-8-95-24-124-19-35-42-45-58-52-9-5-13-6-13-9-1-5-6-9-11-9z m-83 182c3-31 10-84 20-102 16-28 34-36 48-43 5-2 11-5 15-8 5 3 10 6 16 8 14 7 32 15 47 43 11 18 17 71 21 102-2 0-4 0-6 0-38 0-65 27-78 45-13-19-42-48-83-45z m125-49l-86 0c-5 0-10 5-10 11 0 6 5 10 10 10l86 0c6 0 10-4 10-10 0-6-4-11-10-11z m-11-45l-64 0c-5 0-10 5-10 11 0 6 5 10 10 10l64 0c6 0 10-4 10-10 0-6-4-11-10-11z m-211-28c-125 0-226 102-226 226 0 125 101 226 226 226 124 0 226-101 226-226 0-23-4-47-11-69-2-6-8-9-14-7-5 2-8 8-7 14 7 20 10 41 10 62 0 113-91 205-204 205-113 0-205-92-205-205 0-113 92-204 205-204 33 0 64 7 93 22 5 3 12 1 14-4 3-6 1-12-4-15-32-16-67-25-103-25z m-13 74l0 37c-21 1-44 7-57 16l9 25c14-9 33-16 54-16 26 0 44 16 44 37 0 20-15 33-42 44-38 15-61 32-61 64 0 31 22 55 56 60l0 38 23 0 0-36c22-1 37-7 48-13l-9-25c-8 5-23 13-47 13-29 0-39-17-39-32 0-19 13-29 46-43 38-15 57-34 57-68 0-29-20-56-58-63l0-38-24 0z"/>
<glyph unicode="&#43;" d="M453 115l-394 0 0 11 0-11c-15 0-30 6-42 17-11 12-17 27-17 42l0 164c0 32 27 59 59 59l394 0c32 0 59-27 59-59l0-164c0-15-6-30-17-42-12-11-27-17-42-17z m-394 261c-21 0-38-17-38-38l0-164c0-10 4-19 12-26 7-8 16-12 26-12l394 0c21 0 38 17 38 38l0 164c0 21-17 38-38 38l-394 0z m247 13l21 0 0-266-21 0z m89-177c-16 0-31 6-43 17-11 12-18 27-18 43 0 16 7 32 18 43 12 11 27 18 43 18 16 0 31-6 43-18 11-11 17-26 17-42 1-16-6-32-17-44-12-11-27-17-43-17z m0 99c-11 0-20-4-28-11-7-7-11-17-11-28 0-10 4-20 11-27 15-15 41-15 56 0 7 7 11 17 11 28 0 10-4 20-11 27-8 7-18 11-28 11z m82-132c-2 0-5 1-7 3l-46 46c-4 4-4 11 0 15 4 4 11 4 15 0l46-46c4-4 4-10 0-15-2-2-5-3-8-3z"/>
<glyph unicode="&#44;" d="M472 0l-461 0c-6 0-11 5-11 11l0 490c0 6 5 11 11 11l431 0c6 0 11-5 11-11l0-452c0-6-5-11-11-11-6 0-11 5-11 11l0 442-410 0 0-470 451 0c6 0 11-4 11-10 0-6-5-11-11-11z m29 27c-6 0-10 5-10 11l0 385c0 6 4 11 10 11 6 0 11-5 11-11l0-385c0-6-5-11-11-11z m-29-27c-22 0-40 19-40 43 0 5 5 10 11 10 6 0 10-5 10-10 0-12 9-22 19-22 10 0 19 10 19 22 0 5 4 10 10 10 6 0 11-5 11-10 0-24-18-43-40-43z m-376 363l0 85 11 0 25-43c6-10 10-19 14-27l0 0c-1 11-1 22-1 35l0 35 10 0 0-85-11 0-25 43c-5 10-10 20-14 29l-1 0c1-11 1-21 1-35l0-37z m117 40l-31 0 0-31 34 0 0-9-44 0 0 85 43 0 0-9-33 0 0-27 31 0z m30-40l-20 85 11 0 9-43c3-10 5-21 6-29l1 0c1 8 3 18 6 29l10 43 11 0 10-43c2-10 4-20 5-29l0 0c2 9 4 19 7 29l10 43 10 0-22-85-11 0-9 45c-3 11-5 19-6 27l0 0c-1-8-3-16-6-27l-11-45z m85 14c4-3 11-6 18-6 10 0 16 6 16 15 0 8-4 12-15 17-12 5-20 12-20 24 0 13 10 23 25 23 8 0 14-2 17-4l-2-9c-3 1-8 4-15 4-11 0-15-7-15-13 0-8 5-12 16-16 13-6 20-13 20-25 0-14-9-25-28-25-7 0-16 2-20 5z m-82-111l-169 0c-6 0-11 5-11 11 0 6 5 10 11 10l169 0c6 0 11-4 11-10 0-6-5-11-11-11z m0-65l-169 0c-6 0-11 4-11 10 0 6 5 11 11 11l169 0c6 0 11-5 11-11 0-6-5-10-11-10z m0-66l-169 0c-6 0-11 5-11 11 0 6 5 10 11 10l169 0c6 0 11-4 11-10 0-6-5-11-11-11z m0-66l-169 0c-6 0-11 5-11 11 0 6 5 11 11 11l169 0c6 0 11-5 11-11 0-6-5-11-11-11z m133 0l-77 0c-6 0-10 5-10 11l0 205c0 6 4 11 10 11l77 0c6 0 11-5 11-11l0-205c0-6-5-11-11-11z m-66 22l56 0 0 183-56 0z"/>
<glyph unicode="&#45;" d="M256 386c-35 0-63 28-63 63 0 35 28 63 63 63 35 0 63-28 63-63 0-35-28-63-63-63z m0 105c-23 0-42-19-42-42 0-23 19-42 42-42 23 0 42 19 42 42 0 23-19 42-42 42z m172-259l-344 0 0 11c0 75 77 136 172 136 95 0 172-61 172-136z m-322 22l300 0c-7 58-72 104-150 104-78 0-143-46-150-104z m150-254c-141 0-256 89-256 199 0 6 5 11 11 11 6 0 10-5 10-11 0-98 106-178 235-178 129 0 235 80 235 178 0 6 4 11 10 11 6 0 11-5 11-11 0-110-115-199-256-199z m0 0c-80 0-146 89-146 199 0 6 5 11 11 11 6 0 11-5 11-11 0-98 55-178 124-178 69 0 124 80 124 178 0 6 5 11 11 11 6 0 11-5 11-11 0-110-66-199-146-199z m0 1c-6 0-11 5-11 11l0 185c0 6 5 10 11 10 6 0 11-4 11-10l0-185c0-6-5-11-11-11z m244 187l-488 0c-6 0-10 5-10 11 0 6 4 11 10 11l488 0c6 0 10-5 10-11 0-6-4-11-10-11z m-35-97l-418 0c-5 0-10 4-10 10 0 6 5 11 10 11l418 0c5 0 10-5 10-11 0-6-5-10-10-10z"/>
<glyph unicode="&#46;" d="M452 0l-103 0c-6 0-11 5-11 11l0 147-38 0c-5 0-9 2-10 6-2 4-1 9 2 12l101 103c4 4 11 4 15 0l101-103c3-3 4-8 2-12-1-4-5-6-10-6l-38 0 0-147c0-6-5-11-11-11z m-93 21l82 0 0 147c0 6 5 11 11 11l24 0-76 77-75-77 24 0c6 0 10-5 10-11l0-147z m-196-21l-103 0c-6 0-11 5-11 11l0 147-38 0c-5 0-8 2-10 6-2 4-1 9 2 12l101 103c4 4 11 4 15 0l101-103c3-3 4-8 2-12-1-4-5-6-10-6l-38 0 0-147c0-6-5-11-11-11z m-92 21l82 0 0 147c0 6 4 11 10 11l24 0-75 77-76-77 24 0c6 0 11-5 11-11z m176 251l0 22c-13 0-26 4-34 10l5 15c8-6 20-10 32-10 16 0 27 9 27 22 0 12-9 20-25 26-23 9-37 19-37 39 0 18 13 32 33 35l0 23 14 0 0-22c13 0 23-4 29-8l-6-14c-4 2-13 7-27 7-18 0-24-10-24-19 0-11 8-17 28-25 22-9 34-21 34-41 0-17-12-33-35-37l0-23z m98-42l-181 0c-6 0-11 4-11 10l0 147-76 0c-5 0-9 3-10 8-1 5 1 10 5 12l177 104c3 2 7 2 11 0l177-104c4-2 6-7 5-12-1-5-6-8-10-8l-76 0 0-147c0-6-5-10-11-10z m-171 21l161 0 0 147c0 6 4 10 10 10l47 0-138 81-137-81 47 0c5 0 10-4 10-10z"/>
<glyph unicode="&#47;" d="M416 338l-320 0c-6 0-11 5-11 11l0 152c0 6 5 11 11 11l320 0c6 0 11-5 11-11l0-152c0-6-5-11-11-11z m-309 21l298 0 0 132-298 0z m394-359l-490 0c-6 0-11 5-11 11l0 116c0 6 5 10 11 10l490 0c6 0 11-4 11-10l0-116c0-6-5-11-11-11z m-480 21l470 0 0 95-470 0z m480 95l-490 0c-4 0-7 2-9 5-2 3-3 6-1 9l85 222c2 5 6 7 10 7l320 0c4 0 8-2 10-7l85-222c2-3 1-6-1-9-2-3-5-5-9-5z m-475 21l460 0-77 201-306 0z m205 243l-91 0c-6 0-11 5-11 11l0 72c0 6 5 11 11 11l91 0c6 0 11-5 11-11l0-72c0-6-5-11-11-11z m-81 22l70 0 0 50-70 0z m130 45l-12 0c-5 0-10 4-10 10 0 6 5 11 10 11l12 0c6 0 11-5 11-11 0-6-5-10-11-10z m50 0l-11 0c-6 0-11 4-11 10 0 6 5 11 11 11l11 0c6 0 11-5 11-11 0-6-5-10-11-10z m51 0l-12 0c-6 0-11 4-11 10 0 6 5 11 11 11l12 0c6 0 10-5 10-11 0-6-5-10-10-10z m-101-33l-12 0c-5 0-10 5-10 11 0 6 5 11 10 11l12 0c6 0 11-5 11-11 0-6-5-11-11-11z m50 0l-11 0c-6 0-11 5-11 11 0 6 5 11 11 11l11 0c6 0 11-5 11-11 0-6-5-11-11-11z m51 0l-12 0c-6 0-11 5-11 11 0 6 5 11 11 11l12 0c6 0 10-5 10-11 0-6-5-11-10-11z m-101-32l-12 0c-5 0-10 5-10 11 0 6 5 10 10 10l12 0c6 0 11-4 11-10 0-6-5-11-11-11z m50 0l-11 0c-6 0-11 5-11 11 0 6 5 10 11 10l11 0c6 0 11-4 11-10 0-6-5-11-11-11z m51 0l-12 0c-6 0-11 5-11 11 0 6 5 10 11 10l12 0c6 0 10-4 10-10 0-6-5-11-10-11z"/>
<glyph unicode="&#58;" d="M480 0l-448 0c-18 0-32 14-32 32l0 448c0 18 14 32 32 32l448 0c18 0 32-14 32-32l0-448c0-18-14-32-32-32z m-448 491c-6 0-11-5-11-11l0-448c0-6 5-11 11-11l448 0c6 0 11 5 11 11l0 448c0 6-5 11-11 11z m166-149l-108 0c-6 0-11 5-11 11 0 5 5 10 11 10l108 0c6 0 10-5 10-10 0-6-4-11-10-11z m0-184l-108 0c-6 0-11 5-11 11 0 6 5 11 11 11l108 0c6 0 10-5 10-11 0-6-4-11-10-11z m0-51l-108 0c-6 0-11 5-11 11 0 6 5 11 11 11l108 0c6 0 10-5 10-11 0-6-4-11-10-11z m224 235l-108 0c-6 0-10 5-10 11 0 5 4 10 10 10l108 0c6 0 11-5 11-10 0-6-5-11-11-11z m-54-54c-6 0-10 5-10 11l0 108c0 6 4 10 10 10 6 0 11-4 11-10l0-108c0-6-5-11-11-11z m39-193c-3 0-6 1-8 3l-77 76c-4 4-4 11 0 15 5 5 11 5 16 0l76-76c4-4 4-11 0-15-2-2-5-3-7-3z m-77 0c-3 0-5 1-8 3-4 4-4 11 0 15l77 76c4 5 11 5 15 0 4-4 4-11 0-15l-76-76c-2-2-5-3-8-3z"/>
<glyph unicode="&#59;" d="M310 69l-299 0c-6 0-11 5-11 10l0 257c0 6 5 10 11 10l161 0c2 0 4 0 6-1l47-33 208 0c6 0 11-4 11-10l0-108c0-6-5-11-11-11-6 0-11 5-11 11l0 97-200 0c-2 0-4 1-6 2l-47 32-148 0 0-235 289 0c6 0 10-5 10-11 0-5-4-10-10-10z m68 222c-1 0-2 0-3 1-6 1-9 7-7 13l31 105-283 78-47-155c-1-6-7-9-13-7-6 1-9 7-7 13l49 165c2 6 8 9 13 8l304-84c3-1 5-3 6-5 2-3 2-6 1-9l-34-115c-1-5-6-8-10-8z m-24 79c-1 0-2 0-3 0l-213 59c-6 2-9 8-8 14 2 5 8 9 13 7l214-59c5-2 9-8 7-13-1-5-5-8-10-8z m-18-52c-1 0-2 0-3 1l-213 59c-6 1-9 7-8 13 2 6 8 9 13 7l214-59c5-1 9-7 7-13-1-5-5-8-10-8z m70-318c-59 0-107 46-107 103 0 57 48 103 107 103 58 0 106-46 106-103 0-57-48-103-106-103z m0 185c-47 0-86-37-86-82 0-45 39-82 86-82 46 0 85 37 85 82 0 45-39 82-85 82z m33-126c-3 0-5 1-8 3l-66 67c-5 4-5 11 0 15 4 4 10 4 15 0l67-67c4-4 4-11 0-15-3-2-5-3-8-3z m-67 0c-3 0-5 1-7 3-5 4-5 11 0 15l66 67c5 4 11 4 16 0 4-4 4-11 0-15l-67-67c-2-2-5-3-8-3z"/>
<glyph unicode="&#60;" d="M462 0l-412 0c-27 0-50 22-50 50l0 220c0 18 10 35 26 44 5 2 11 1 14-4 3-6 1-12-4-15-9-5-15-15-15-25l0-220c0-16 13-29 29-29l412 0c16 0 29 13 29 29l0 220c0 11-6 20-16 25-5 3-7 10-4 15 3 5 9 7 14 4 17-8 27-25 27-44l0-220c0-28-23-50-50-50z m-439 288c-3 0-6 1-8 4-4 4-3 11 1 15l52 45c5 4 11 3 15-1 4-4 4-11-1-15l-52-45c-2-2-4-3-7-3z m287 156c-3 0-5 1-7 3l-47 40-43-38c-5-4-12-3-16 1-3 5-3 12 1 15l51 44c4 4 10 4 14 0l54-46c4-4 4-11 1-15-3-3-5-4-8-4z m179-156c-3 0-5 1-7 3l-54 46c-4 4-4 11-1 15 4 5 11 5 15 1l54-46c4-4 5-11 1-15-2-3-5-4-8-4z m-466-271c-2 0-5 1-7 3-4 4-5 11-1 15l125 139c2 3 5 4 8 4l216 0c3 0 6-1 8-4l125-139c4-4 3-11-1-15-5-4-11-3-15 1l-121 136-208 0-121-136c-2-2-5-4-8-4z m122 144c-3 0-5 1-7 3l-130 116c-5 3-5 10-1 15 4 4 10 4 15 0l130-115c4-4 5-11 1-15-2-3-5-4-8-4z m220 0c-3 0-6 1-8 4-4 4-3 11 1 15l130 115c4 4 11 4 15 0 4-5 4-12-1-15l-130-116c-2-2-4-3-7-3z m66 62c-6 0-11 4-11 10l0 211-328 0 0-203c0-6-5-11-11-11-6 0-11 5-11 11l0 214c0 6 5 10 11 10l350 0c6 0 11-4 11-10l0-222c0-6-5-10-11-10z m-65 152l-220 0c-6 0-11 5-11 10 0 6 5 11 11 11l220 0c6 0 11-5 11-11 0-5-5-10-11-10z m0-70l-220 0c-6 0-11 5-11 11 0 6 5 11 11 11l220 0c6 0 11-5 11-11 0-6-5-11-11-11z m0-69l-220 0c-6 0-11 5-11 11 0 6 5 10 11 10l220 0c6 0 11-4 11-10 0-6-5-11-11-11z"/>
<glyph unicode="&#61;" d="M194 0c-107 0-194 87-194 194 0 107 87 194 194 194 32 0 64-8 92-24 5-2 7-9 5-14-3-5-10-7-15-4-25 13-53 20-82 20-95 0-173-77-173-172 0-95 78-173 173-173 95 0 172 78 172 173 0 19-3 38-9 56-2 6 1 12 7 14 5 2 11-1 13-7 7-20 11-41 11-63 0-107-87-194-194-194z m0 0c-63 0-112 85-112 194 0 109 49 194 112 194 62 0 111-85 111-194 0-109-49-194-111-194z m0 366c-49 0-90-79-90-172 0-94 41-173 90-173 49 0 90 79 90 173 0 93-41 172-90 172z m0-365c-6 0-11 5-11 11l0 364c0 6 5 11 11 11 6 0 11-5 11-11l0-364c0-6-5-11-11-11z m182 182l-364 0c-6 0-11 5-11 11 0 6 5 11 11 11l364 0c6 0 11-5 11-11 0-6-5-11-11-11z m-83 95l-255 0c-6 0-10 5-10 11 0 6 4 11 10 11l255 0c6 0 11-5 11-11 0-6-5-11-11-11z m57-190l-312 0c-6 0-10 5-10 11 0 6 4 11 10 11l312 0c5 0 10-5 10-11 0-6-5-11-10-11z m-41 137c-2 0-4 0-5 1-3 1-5 4-5 6-2 7-45 159-15 216 21 39 62 64 107 64 20 0 39-5 57-14 28-15 49-40 59-71 9-31 6-64-9-92-30-57-179-108-186-110-1 0-2 0-3 0z m82 266c-37 0-70-21-88-53-20-38 1-141 13-189 47 17 143 58 163 96 13 23 15 50 7 76-8 25-25 46-48 58-15 8-30 12-47 12z m3-169c-41 0-74 34-74 75 0 41 33 74 74 74 41 0 75-33 75-74 0-41-34-75-75-75z m0 128c-29 0-53-24-53-53 0-30 24-54 53-54 29 0 53 24 53 54 0 29-24 53-53 53z"/>
<glyph unicode="&#62;" d="M78 58c0 0 0 0 0 0-2 0-5 2-7 4-84 84-89 217-14 307l-14 14c-3 3-4 8-3 12 2 4 6 6 10 6l85 0c6 0 11-4 11-10l0-83c0-1 0-1 0-2 0-6-5-11-11-11 0 0 0 0 0 0-3 0-5 1-8 3l-15 16c-45-59-40-144 13-198 4-4 4-11 0-15l-39-39c-2-2-5-4-8-4z m-2 322l3-3c4-4 4-10 0-14-71-80-71-200 0-279l24 25c-57 64-58 163 0 228 2 3 4 4 7 4 3 0 6-1 8-3l6-6 0 48z m386-269c0 0 0 0 0 0l-85 0c-6 0-11 4-11 10l0 85c0 4 3 8 7 10 4 2 8 1 12-2l15-16c45 59 40 144-13 198-4 4-4 11 0 15l39 39c2 2 5 4 8 4 2 0 5-2 7-4 84-84 89-217 14-307l13-13c3-2 5-5 5-9 0-6-5-10-11-10z m-74 21l48 0-3 3c-4 4-4 10 0 14 71 80 71 200 0 279l-24-25c57-64 58-163 0-228-2-3-4-4-7-4-3 0-6 1-8 3l-6 6z m-118 163c-60 0-109 49-109 109 0 59 49 108 109 108 60 0 108-49 108-108 0-60-48-109-108-109z m0 196c-48 0-87-39-87-87 0-49 39-88 87-88 48 0 87 39 87 88 0 48-39 87-87 87z m-24-491c-60 0-109 49-109 108 0 60 49 109 109 109 60 0 108-49 108-109 0-59-48-108-108-108z m0 196c-48 0-87-39-87-88 0-48 39-87 87-87 48 0 87 39 87 87 0 49-39 88-87 88z m-6-154l0 16c-9 0-19 3-24 7l3 11c6-4 15-7 24-7 11 0 19 7 19 16 0 9-6 15-18 19-17 7-27 14-27 29 0 13 10 23 25 26l0 16 10 0 0-16c9 0 16-3 21-5l-4-11c-4 2-10 6-21 6-12 0-17-8-17-14 0-9 6-13 20-19 17-7 25-15 25-30 0-13-9-25-25-27l0-17-11 0z m71 310c-5-2-15-5-28-5-31 0-55 20-55 55 0 35 24 58 58 58 13 0 22-3 26-5l-4-11c-5 2-13 4-22 4-26 0-43-16-43-45 0-27 16-44 43-44 8 0 17 2 23 4z m-107 62l0 10 84 0 0-10z m0-31l0 9 84 0 0-9z"/>
<glyph unicode="&#63;" d="M492 303l-472 0c-6 0-11 4-11 10 0 91 111 164 247 164 136 0 247-73 247-164 0-6-5-10-11-10z m-461 21l450 0c-9 74-106 132-225 132-119 0-216-58-225-132z m183-324l-5 0c-30 0-53 24-53 53 0 6 5 11 10 11 6 0 11-5 11-11 0-18 14-32 32-32l5 0c17 0 31 14 31 32l0 35c0 6 5 11 11 11 6 0 11-5 11-11l0-35c0-29-24-53-53-53z m42 456c-6 0-11 5-11 11l0 34c0 6 5 11 11 11 6 0 11-5 11-11l0-34c0-6-5-11-11-11z m0-193c-6 0-11 5-11 11l0 34c0 6 5 11 11 11 6 0 11-5 11-11l0-34c0-6-5-11-11-11z m229-185l-458 0c-5 0-10 5-10 10l0 186c0 6 5 11 10 11l458 0c5 0 10-5 10-11l0-186c0-5-5-10-10-10z m-447 21l436 0 0 164-436 0z m218 11c-42 0-75 32-75 71 0 39 33 71 75 71 42 0 75-32 75-71 0-39-33-71-75-71z m0 121c-30 0-54-22-54-50 0-27 24-50 54-50 30 0 54 23 54 50 0 28-24 50-54 50z m-144-50c0 8-7 15-15 15-9 0-16-7-16-15 0-8 7-14 16-14 8 0 15 6 15 14z m319 0c0 8-7 15-16 15-8 0-15-7-15-15 0-8 7-14 15-14 9 0 16 6 16 14z m-178-40l0 10c-6 0-12 2-15 4l2 7c4-3 9-5 14-5 7 0 12 4 12 10 0 5-4 9-11 12-10 4-16 8-16 17 0 8 5 14 14 15l0 10 6 0 0-9c6 0 10-2 13-4l-2-6c-2 1-6 3-13 3-7 0-10-4-10-8 0-5 4-8 12-11 10-4 15-10 15-18 0-8-5-15-15-17l0-10z"/>
<glyph unicode="&#64;" d="M307 271c1-6 0-12-2-17-1-6-4-10-8-14-4-5-8-8-14-11-6-3-13-5-21-7l1-25c0 0 0-1 0-1 0-1-1-1-1-1-1-1-1-1-2-1-1-1-2-1-4-1-2 0-3 0-4 0-1 0-2 0-3 0 0 0-1 1-1 1 0 1 0 1 0 2l-1 25c-4 0-7 0-10 0-4 1-7 1-9 2-3 0-5 1-7 1-2 1-3 2-4 2-1 1-1 2-2 3 0 2-1 3-1 6 0 1 0 3 0 4 0 1 0 2 0 3 0 1 0 1 1 1 0 1 1 1 2 1 1 0 2 0 4-1 2-1 5-2 8-3 3-1 7-1 11-2 5-1 10 0 16 0 11 2 19 5 24 10 5 5 7 11 6 18 0 5-2 9-4 11-3 3-6 5-9 7-4 2-8 3-13 4-4 1-9 2-13 3-5 1-10 3-14 4-5 2-9 4-13 6-4 3-7 6-10 10-2 5-4 10-5 16 0 5 0 10 1 15 1 5 3 9 6 13 4 3 8 7 13 10 5 2 11 4 18 6l-1 23c0 1 0 1 0 2 0 0 1 1 1 1 1 0 2 1 2 1 1 0 3 0 4 1 2 0 3 0 4 0 2 0 2 0 3-1 1 0 1 0 1-1 1 0 1-1 1-1l0-24c3 1 5 0 8 0 2 0 5 0 7-1 2 0 4-1 6-1 2-1 3-2 4-2 1-1 1-1 2-2 0 0 0-1 0-2 1 0 1-1 1-2 0-1 1-2 1-3 0-1 0-3 0-4 0-1 0-2 0-2 0-1-1-2-1-2 0 0-1 0-1-1-1 0-3 1-4 1-2 1-5 2-8 3-3 1-6 1-10 2-4 0-8 0-12 0-6-1-10-2-13-4-4-1-7-3-9-5-2-2-3-4-4-7 0-3-1-6 0-9 0-4 2-8 4-11 3-2 6-5 10-6 3-2 8-3 12-4 5-1 9-2 14-3 5-1 10-3 14-4 5-2 9-4 13-6 4-3 7-6 10-10 2-4 4-10 5-16z m-39-159l-24 0c-16 0-28 13-28 28l0 3c-14 4-27 10-39 17l-3-3c-10-10-29-10-39 0l-17 18c-11 10-11 28 0 39l2 2c-7 13-13 26-16 40l-4 0c-15 0-28 12-28 27l0 25c0 15 13 28 28 28l4 0c3 14 9 27 16 39l-2 3c-11 10-11 28 0 39l17 17c10 11 29 11 39 0l3-2c12 7 25 12 39 16l0 4c0 15 12 27 28 27l24 0c16 0 28-12 28-27l0-4c14-4 27-9 39-16l3 2c10 11 29 11 39 0l17-17c6-5 9-12 9-20 0-7-3-14-9-19l-2-3c7-12 13-25 16-39l4 0c15 0 28-13 28-28l0-25c0-15-13-27-28-27l-4 0c-3-14-9-27-16-40l2-2c11-11 11-29 0-39l-17-18c-10-10-29-10-39 0l-3 3c-12-7-25-13-39-16l0-4c0-15-12-28-28-28z m-94 75l7-5c15-9 31-16 48-20l8-1 0-21c0-4 3-6 7-6l24 0c4 0 7 2 7 6l0 21 8 1c17 4 33 11 48 20l7 5 15-15c2-2 7-2 9 0l17 18c3 2 3 6 0 9l-14 14 4 8c10 14 17 31 20 48l2 8 21 0c3 0 6 3 6 6l0 25c0 3-3 6-6 6l-21 0-2 9c-3 17-10 33-20 48l-4 7 14 15c2 1 2 3 2 4 0 2 0 4-2 5l-17 17c-2 3-7 2-9 0l-15-15-7 5c-15 10-31 17-48 20l-8 2 0 21c0 3-3 6-7 6l-24 0c-4 0-7-3-7-6l0-21-8-2c-17-3-33-10-48-20l-7-5-15 15c-2 2-7 2-9 0l-17-17c-3-3-3-7 0-9l14-15-4-7c-10-15-17-31-20-48l-2-9-21 0c-3 0-6-3-6-6l0-25c0-3 3-6 6-6l21 0 2-8c3-17 10-34 20-48l4-8-14-14c-3-3-3-7 0-9l17-18c2-2 7-2 9 0z m82-154c-124 0-256 31-256 90 0 33 45 61 123 77l4-20c-73-15-106-40-106-57 0-33 97-69 235-69 138 0 235 36 235 69 0 17-32 41-102 56l4 21c76-16 119-44 119-77 0-59-132-90-256-90z m0 41c-61 0-165 10-165 49 0 31 67 42 108 46l2-21c-64-6-88-21-89-25 2-8 48-28 144-28 96 0 142 20 144 28-1 5-26 20-94 26l2 21c34-3 113-14 113-47 0-39-104-49-165-49z"/>
<glyph unicode="&#91;" d="M442 0l-372 0c-39 0-70 30-70 67l0 318c0 37 31 67 70 67l42 0 0-21-42 0c-27 0-49-21-49-46l0-318c0-25 22-46 49-46l372 0c27 0 49 21 49 46l0 318c0 25-22 46-49 46l-42 0 0 21 42 0c39 0 70-30 70-67l0-318c0-37-31-67-70-67z m-275 452l178 0 0-21-178 0z m265-368l-352 0c-6 0-11 5-11 11l0 231c0 5 5 10 11 10l352 0c6 0 11-5 11-10l0-231c0-6-5-11-11-11z m-341 22l330 0 0 209-330 0z m48 272c-21 0-39 18-39 41l0 52c0 23 18 41 39 41 22 0 40-18 40-41l0-52c0-23-18-41-40-41z m0 113c-10 0-18-9-18-20l0-52c0-11 8-20 18-20 11 0 19 9 19 20l0 52c0 11-8 20-19 20z m234-113c-22 0-40 18-40 41l0 52c0 23 18 41 40 41 21 0 39-18 39-41l0-52c0-23-18-41-39-41z m0 113c-11 0-19-9-19-20l0-52c0-11 8-20 19-20 10 0 18 9 18 20l0 52c0 11-8 20-18 20z m-182-254l-1 0-25-12-5 22 35 16 26 0 0-126-30 0z m74-100l0 18 17 15c29 24 43 38 43 53 0 10-6 18-22 18-11 0-21-5-28-10l-9 21c10 7 26 13 44 13 30 0 46-17 46-39 0-21-16-38-35-54l-12-10 0 0 50 0 0-25-94 0z"/>
<glyph unicode="&#93;" d="M449 57l-386 0c-35 0-63 26-63 57l0 341c0 31 28 57 63 57l386 0c35 0 63-26 63-57l0-341c0-31-28-57-63-57z m-386 434c-23 0-42-16-42-36l0-341c0-20 19-36 42-36l386 0c23 0 42 16 42 36l0 341c0 20-19 36-42 36z m321-362l-256 0c-25 0-46 19-46 42l0 227c0 23 21 41 46 41l256 0c25 0 46-18 46-41l0-227c0-23-21-42-46-42z m-256 289c-13 0-25-9-25-20l0-227c0-11 12-20 25-20l256 0c13 0 25 9 25 20l0 227c0 11-12 20-25 20z m322-103l-31 0c-6 0-10 5-10 11 0 6 4 11 10 11l21 0 0 28-21 0c-6 0-10 4-10 10 0 6 4 11 10 11l31 0c6 0 11-5 11-11l0-49c0-6-5-11-11-11z m0-125l-31 0c-6 0-10 4-10 10 0 6 4 11 10 11l21 0 0 28-21 0c-6 0-10 5-10 11 0 6 4 10 10 10l31 0c6 0 11-4 11-10l0-50c0-6-5-10-11-10z m-150 99l-106 0c-6 0-10 5-10 11l0 34c0 6 4 11 10 11l106 0c6 0 10-5 10-11l0-34c0-6-4-11-10-11z m-95 22l84 0 0 13-84 0z m-18-140c-26 0-46 29-46 65 0 8 1 15 2 22-17 14-27 36-27 59 0 41 31 75 71 75 30 0 57-20 67-50 2-6-1-12-7-14-6-1-12 2-14 7-7 21-25 35-46 35-28 0-50-23-50-53 0-18 9-36 24-46l8-4-3-8c-3-7-4-15-4-23 0-26 13-44 25-44 11 0 24 18 24 44 0 8-1 16-3 23l-3 8 7 4c10 7 17 16 21 27 2 6 8 9 14 7 5-2 8-8 6-14-4-13-13-24-23-33 2-7 3-14 3-22 0-36-21-65-46-65z m-27-171l-79 0c-6 0-11 5-11 11l0 31c0 6 5 10 11 10l79 0c6 0 10-4 10-10l0-31c0-6-4-11-10-11z m-68 21l57 0 0 10-57 0z m339-21l-79 0c-6 0-10 5-10 11l0 31c0 6 4 10 10 10l79 0c6 0 11-4 11-10l0-31c0-6-5-11-11-11z m-68 21l57 0 0 10-57 0z"/>
<glyph unicode="&#94;" d="M256 0c-128 0-237 96-254 223 0 6 4 11 10 12 5 1 11-3 11-9 15-117 116-205 233-205 117 0 214 84 232 198 1 6 6 10 12 9 6-1 10-6 9-12-20-125-126-216-253-216z m-243 277c-1 0-1 0-1 0-6 1-10 6-10 12 17 127 126 223 254 223 127 0 236-94 254-220 0-6-4-11-9-12-6-1-12 3-12 9-17 115-117 202-233 202-117 0-217-88-233-205 0-5-5-9-10-9z m243-206c-102 0-184 83-184 185 0 102 82 185 184 185 102 0 185-83 185-185 0-102-83-185-185-185z m0 348c-90 0-163-73-163-163 0-90 73-163 163-163 90 0 163 73 163 163 0 90-73 163-163 163z m0-288c-69 0-125 56-125 125 0 69 56 125 125 125 69 0 126-56 126-125 0-69-57-125-126-125z m0 229c-57 0-104-47-104-104 0-57 47-104 104-104 58 0 104 47 104 104 0 57-46 104-104 104z m-6-179l0 19c-11 0-21 3-28 8l5 12c6-4 16-8 26-8 13 0 21 8 21 18 0 10-7 16-20 22-19 7-30 15-30 31 0 15 11 27 27 29l0 19 12 0 0-18c10 0 18-3 23-6l-4-12c-4 2-12 6-23 6-14 0-20-9-20-16 0-9 7-14 23-21 19-7 28-17 28-33 0-14-10-28-29-31l0-19z"/>
<glyph unicode="&#95;" d="M466 203c-3 0-6 1-8 3l-202 190-202-190c-3-2-6-3-9-2-3 0-6 2-8 4l-35 58c-3 4-2 10 1 14l246 229c4 4 10 4 14 0l246-229c3-4 4-10 1-14l-35-58c-2-2-5-4-8-4 0-1-1-1-1-1z m-210 218c3 0 5-1 7-3l200-187 25 39-232 217-232-217 24-39 201 187c2 2 4 3 7 3z m168-421l-118 0c-6 0-11 5-11 11l0 137c0 22-18 40-39 40-22 0-39-18-39-40l0-137c0-6-5-11-11-11l-118 0c-6 0-11 5-11 11l0 239c0 3 1 6 3 8l169 158c4 4 10 4 14 0l169-158c2-2 3-5 3-8l0-239c0-6-5-11-11-11z m-108 21l98 0 0 225-158 147-158-147 0-225 98 0 0 127c0 34 27 62 60 62 33 0 60-28 60-62z m-60 211c-27 0-49 23-49 51 0 29 22 52 49 52 27 0 49-23 49-52 0-28-22-51-49-51z m0 81c-15 0-27-13-27-30 0-16 12-30 27-30 15 0 27 14 27 30 0 17-12 30-27 30z"/>
<glyph unicode="&#96;" d="M290 227c-76 0-137 61-137 137 0 75 61 136 137 136 75 0 136-61 136-136 0-76-61-137-136-137z m0 252c-64 0-116-52-116-115 0-64 52-116 116-116 63 0 115 52 115 116 0 63-52 115-115 115z m-252-214c-18 0-33 12-37 29-2 10-1 20 5 29 5 8 13 14 23 16l106 26c6 2 12-2 13-8l13-52c0-3 0-6-1-8-2-3-4-4-7-5l-106-26c-3 0-6-1-9-1z m92 77l-96-23c-4-1-8-4-10-8-3-3-3-8-2-12 2-7 8-12 16-12 1 0 2 0 4 0l96 23z m168-330l-236 0 0 85c0 74 58 136 133 141l7 0z m-214 21l182 0-77 183c-60-8-105-58-105-119l0-64z m428-21l-236 0 96 226 8 0c74-5 132-67 132-141z m-204 21l183 0 0 64c0 61-46 111-105 119z m-20 240c-50 0-90 40-90 89 0 50 40 90 90 90 49 0 89-40 89-90 0-49-40-89-89-89z m0 157c-38 0-68-30-68-68 0-37 30-68 68-68 37 0 68 31 68 68 0 38-31 68-68 68z"/>
<glyph unicode="&#123;" d="M452 37l-392 0c-6 0-11 5-11 11l0 69c0 6 5 11 11 11l81 0 0 11-130 0c-6 0-11 5-11 11l0 314c0 6 5 11 11 11l490 0c6 0 11-5 11-11l0-314c0-6-5-11-11-11l-130 0 0-11 81 0c6 0 11-5 11-11l0-69c0-6-5-11-11-11z m-382 21l372 0 0 49-82 0c-6 0-10 4-10 10l0 33c0 6 4 10 10 10l131 0 0 294-470 0 0-294 131 0c6 0 10-4 10-10l0-33c0-6-4-10-10-10l-82 0z m390 123l-408 0c-6 0-10 5-10 11l0 231c0 6 4 11 10 11l408 0c6 0 10-5 10-11l0-231c0-6-4-11-10-11z m-397 21l386 0 0 210-386 0z m46 12c-6 0-11 5-11 11l0 44c0 6 5 10 11 10 6 0 10-4 10-10l0-44c0-6-4-11-10-11z m55 0c-5 0-10 5-10 11l0 20c0 5 5 10 10 10 6 0 11-5 11-10l0-20c0-6-5-11-11-11z m56 0c-6 0-11 5-11 11l0 83c0 6 5 11 11 11 6 0 11-5 11-11l0-83c0-6-5-11-11-11z m56 0c-6 0-11 5-11 11l0 135c0 6 5 11 11 11 6 0 10-5 10-11l0-135c0-6-4-11-10-11z m55 0c-5 0-10 5-10 11l0 61c0 6 5 11 10 11 6 0 11-5 11-11l0-61c0-6-5-11-11-11z m56 0c-6 0-11 5-11 11l0 166c0 6 5 11 11 11 6 0 11-5 11-11l0-166c0-6-5-11-11-11z"/>
<glyph unicode="&#124;" d="M354 235c-1 0-3 0-4 1l-344 162c-4 2-6 6-6 10 0 4 2 8 6 9l153 75c2 2 6 2 8 1l338-139c4-2 7-5 7-9 0-4-1-8-5-10l-147-98c-2-1-4-2-6-2z m-319 173l318-150 126 84-315 129z m319-232c-1 0-3 0-4 1l-344 162c-4 2-6 6-6 10 0 4 2 8 6 10l39 19c6 3 12 0 15-5 2-5 0-12-5-14l-20-10 318-150 126 84-17 7c-5 2-8 8-6 14 3 5 9 8 14 5l35-14c4-2 7-5 7-9 0-4-1-8-5-10l-147-98c-2-1-4-2-6-2z m0-52c-1 0-3 0-4 1l-344 162c-4 2-6 5-6 9 0 5 2 8 6 10l39 19c6 3 12 1 15-4 2-6 0-12-5-15l-20-9 318-151 126 84-17 7c-5 2-8 9-6 14 3 5 9 8 14 6l35-15c4-1 7-5 7-9 0-3-1-7-5-9l-147-99c-2-1-4-1-6-1z m0-53c-1 0-3 0-4 1l-344 162c-4 2-6 6-6 10 0 4 2 8 6 10l39 19c6 2 12 0 15-5 2-5 0-12-5-14l-20-10 318-150 126 84-17 7c-5 2-8 8-6 13 3 6 9 8 14 6l35-14c4-2 7-5 7-9 0-4-1-8-5-10l-147-98c-2-1-4-2-6-2z m0-53c-1 0-3 1-4 1l-344 163c-4 2-6 5-6 9 0 4 2 8 6 10l39 19c6 3 12 1 15-5 2-5 0-11-5-14l-20-9 318-151 126 84-17 7c-5 2-8 8-6 14 3 5 9 8 14 6l35-15c4-1 7-5 7-9 0-4-1-7-5-10l-147-98c-2-1-4-2-6-2z m-105 311c-20 0-38 4-53 10-19 8-30 21-30 35-1 8 2 23 24 35 15 8 36 13 59 13 19 0 38-4 52-10 19-8 30-21 31-35 0-8-3-23-24-35-16-8-37-13-59-13z m0 72c-19 0-37-4-49-11-8-5-13-10-13-15 0-5 7-12 18-16 12-6 27-9 44-9 18 0 36 4 48 11 9 5 13 10 13 15 0 5-7 12-17 16-12 6-28 9-44 9z m-111 27c-6-3-16-3-22-1-7 3-7 8-1 12 5 3 15 3 22 0 6-3 7-8 1-11z m259-115c-5-3-15-3-22 0-7 2-7 7-1 11 6 3 16 3 22 0 7-3 7-8 1-11z m-186 45l8 4c-5 3-9 6-10 9l8 2c1-3 4-6 10-8 6-3 14-3 19 0 5 2 4 5-1 10-6 6-8 11-1 15 7 4 18 4 28 1l9 5 6-3-9-4c6-3 8-5 10-7l-8-2c-1 1-3 4-9 6-7 4-14 3-17 1-5-3-4-5 2-11 6-6 6-10-1-15-7-3-18-4-29-1l-9-5z"/>
<glyph unicode="&#125;" d="M501 0l-490 0c-6 0-11 5-11 11l0 483c0 6 5 11 11 11 6 0 10-5 10-11l0-473 480 0c6 0 11-4 11-10 0-6-5-11-11-11z m-376 0l-61 0c-6 0-11 5-11 11l0 376c0 6 5 10 11 10l61 0c6 0 10-4 10-10l0-376c0-6-4-11-10-11z m-50 21l39 0 0 355-39 0z m161-21l-61 0c-6 0-11 5-11 11l0 289c0 6 5 11 11 11l61 0c5 0 10-5 10-11l0-289c0-6-5-11-10-11z m-51 21l40 0 0 269-40 0z m161-21l-60 0c-6 0-11 5-11 11l0 191c0 6 5 10 11 10l60 0c6 0 11-4 11-10l0-191c0-6-5-11-11-11z m-50 21l40 0 0 170-40 0z m161-21l-61 0c-5 0-10 5-10 11l0 126c0 5 5 10 10 10l61 0c6 0 11-5 11-10l0-126c0-6-5-11-11-11z m-50 21l40 0 0 105-40 0z m-27 169c-5 0-10 3-11 8l-8 37c0 3 0 6 2 8 2 2 4 4 7 5l32 6-320 207c-2 1-4 4-4 7-1 2 0 5 1 8l21 31c4 5 10 6 15 3l320-207-7 32c0 3 0 6 2 8 1 2 4 4 6 5l38 7c6 1 11-2 13-8l25-120c0-3 0-5-2-8-1-2-4-4-7-4l-121-25c-1 0-2 0-2 0z m5 39l3-16 101 20-21 99-17-3 10-46c1-5-1-9-4-11-4-3-9-3-12 0l-333 215-9-14 332-215c4-2 6-7 5-11-1-4-4-8-8-9z"/>
<glyph unicode="&#126;" d="M501 0l-490 0c-6 0-11 5-11 11l0 298c0 6 5 10 11 10l187 0c2 0 5 0 6-1l55-38 242 0c6 0 11-5 11-11l0-258c0-6-5-11-11-11z m-480 21l470 0 0 238-235 0c-2 0-4 0-6 1l-55 38-174 0z m416 238c-1 0-2 0-3 0-6 2-9 8-7 13l37 124-333 92-54-182c-2-6-8-9-13-7-6 1-9 7-7 13l57 192c2 6 8 9 13 8l353-98c3-1 5-3 6-5 2-3 2-6 1-8l-40-135c-1-4-5-7-10-7z m-28 91c0 0-1 0-2 1l-248 68c-6 2-9 8-8 13 2 6 8 9 14 8l247-69c6-1 9-7 8-13-2-5-6-8-11-8z m-21-60c-1 0-1 0-2 1l-248 68c-6 2-9 8-8 13 2 6 8 9 13 8l248-69c6-1 9-7 8-13-2-5-6-8-11-8z m-25-212l0 13c-8 0-16 3-21 6l4 9c4-4 11-6 19-6 10 0 16 5 16 13 0 7-5 11-15 15-14 5-22 12-22 23 0 11 7 19 20 21l0 13 8 0 0-13c8 0 14-2 18-4l-4-9c-2 2-8 5-17 5-10 0-14-6-14-12 0-6 5-10 17-14 14-6 21-13 21-24 0-11-8-20-22-23l0-13-8 0z m5-44c-56 0-101 44-101 97 0 54 45 98 101 98 55 0 100-44 100-98 0-53-45-97-100-97z m0 173c-44 0-79-34-79-76 0-41 35-75 79-75 43 0 78 34 78 75 0 42-35 76-78 76z m-308-15c-6 0-10 5-10 11l0 56c0 6 4 10 10 10l86 0c6 0 11-4 11-10 0-6-5-11-11-11l-75 0 0-45c0-6-5-11-11-11z"/>
<glyph unicode="&#92;" d="M404 152l-296 0c-47 0-85 38-85 85l0 190c0 47 38 85 85 85l296 0c47 0 85-38 85-85l0-190c0-23-9-44-25-60-16-16-37-25-60-25z m-296 339c-35 0-64-29-64-64l0-190c0-35 29-64 64-64l296 0c35 0 64 29 64 64l0 190c0 35-29 64-64 64z m148-491c-6 0-11 5-11 11l0 151c0 6 5 11 11 11 6 0 11-5 11-11l0-151c0-6-5-11-11-11z m-93 23c-3 0-5 1-7 2-5 4-5 11-1 16l92 100c4 4 11 5 15 1 4-4 5-11 1-15l-92-101c-2-2-5-3-8-3z m185 0c-3 0-6 1-8 3l-92 101c-4 4-4 11 1 15 4 4 11 3 15-1l92-100c4-5 3-12-1-16-2-1-5-2-7-2z m-142 226c0 0-1 0-1 0-3 0-6 1-8 4l-60 72-38-37c-2-2-5-3-8-3-3 0-6 1-8 4l-23 27c-4 4-3 10 0 14l79 81c2 3 5 4 8 4 3 0 6-2 8-4l49-62 94 107c2 2 5 3 8 3 0 0 0 0 0 0 3 0 6-1 8-3l44-49 43 49c2 2 5 3 8 3 3 0 6-1 8-3l35-38c4-4 4-10 0-14l-82-99c-2-3-5-4-8-4 0 0 0 0 0 0-4 0-7 1-9 4l-45 55-94-108c-2-2-5-3-8-3z m-69 102c0 0 1 0 1 0 3 0 6-1 7-3l61-72 94 108c2 2 5 3 8 3 4 0 6-1 8-4l46-55 68 83-20 22-44-49c-2-2-5-4-8-4-3 1-5 2-8 4l-44 49-94-108c-2-2-5-4-8-4-3 1-6 2-8 4l-50 63-64-65 10-12 38 37c2 2 5 3 7 3z m340-136l-442 0c-6 0-11 5-11 10 0 6 5 11 11 11l442 0c6 0 11-5 11-11 0-5-5-10-11-10z"/>
<glyph unicode="&#57344;" d="M471 0l-430 0c-22 0-41 19-41 41l0 430c0 22 19 41 41 41l430 0c22 0 41-19 41-41l0-430c0-22-19-41-41-41z m-430 491c-11 0-20-9-20-20l0-430c0-11 9-20 20-20l430 0c11 0 20 9 20 20l0 430c0 11-9 20-20 20z m414-440l-398 0c-6 0-11 5-11 11l0 346c0 5 5 10 11 10l398 0c6 0 11-5 11-10l0-346c0-6-5-11-11-11z m-387 22l376 0 0 324-376 0z m35 366l-46 0c-6 0-11 5-11 11 0 6 5 11 11 11l46 0c6 0 11-5 11-11 0-6-5-11-11-11z m93 0l-46 0c-6 0-11 5-11 11 0 6 5 11 11 11l46 0c5 0 10-5 10-11 0-6-5-11-10-11z m92 0l-46 0c-6 0-10 5-10 11 0 6 4 11 10 11l46 0c6 0 11-5 11-11 0-6-5-11-11-11z m93 0l-46 0c-6 0-11 5-11 11 0 6 5 11 11 11l46 0c6 0 10-5 10-11 0-6-4-11-10-11z m-125-344c-77 0-139 63-139 140 0 77 62 139 139 139 77 0 139-62 139-139 0-77-62-140-139-140z m0 258c-65 0-118-53-118-118 0-65 53-118 118-118 65 0 118 53 118 118 0 65-53 118-118 118z m-52-209c-2 0-5 1-6 2-4 2-5 7-5 11l13 53-41 36c-4 2-5 7-3 11 1 4 4 7 9 7l54 5 21 50c2 4 6 7 10 7 4 0 8-3 10-7l21-50 54-5c5 0 8-3 9-7 2-4 1-9-3-11l-41-36 12-51c1-1 1-3 1-4 0-6-5-11-11-11 0 0 0 0 0 0-2 0-4 0-5 1l-47 29-47-29c-1-1-3-1-5-1z m52 53c2 0 4-1 6-2l30-18-8 34c-1 4 0 8 3 11l27 23-35 3c-4 1-8 3-9 7l-14 33-14-33c-1-4-5-6-9-7l-35-3 27-23c3-3 4-7 3-11l-8-34 30 18c2 1 4 2 6 2z"/>
<glyph unicode="&#57345;" d="M41 0c-11 0-21 4-29 12-8 8-12 18-12 29l0 269c0 22 19 41 41 41l318 0c6 0 11-5 11-11 0-6-5-10-11-10l-318 0c-11 0-20-9-20-20l0-269c0-5 2-10 6-14 4-4 9-6 14-6 0 0 0 0 0 0l386 0c11 0 20 9 20 20l0 269c0 6-4 13-9 16-5 4-7 10-3 15 3 5 9 6 14 3 12-7 19-20 19-34l0-269c0-22-18-41-41-41l-386 0c0 0 0 0 0 0z m269 78c-1 0-3 0-4 1l-44 22c-4 2-7 7-6 11l7 34c1 1 1 2 1 3l92 187c2 5 9 8 14 5 5-3 8-9 5-14l-91-186-5-25 29-14 16 19 91 186c2 5 9 7 14 5 5-3 7-9 5-15l-92-187c0-1 0-1-1-2l-22-26c-2-3-5-4-9-4z m81 189c-6 0-13 1-19 4-21 11-30 37-19 60l76 156c8 15 23 25 40 25 7 0 13-1 19-4 22-11 30-38 19-60l-76-156c-7-15-23-25-40-25z m78 224c-8 0-17-6-21-14l-76-156c-5-11-1-25 10-31 10-5 25 0 30 11l76 156c6 12 2 26-9 31-3 2-6 3-10 3z m-210-395l-2-60 46 38z m2 122l-200 0c-6 0-11 5-11 11l0 48c0 6 5 11 11 11l232 0c6 0 10-5 10-11 0-6-4-10-10-10l-221 0 0-28 189 0c6 0 11-5 11-10 0-6-5-11-11-11z m-35-135l-165 0c-6 0-11 5-11 11l0 49c0 6 5 10 11 10l165 0c6 0 11-4 11-10 0-6-5-11-11-11l-154 0 0-27 154 0c6 0 11-5 11-11 0-6-5-11-11-11z"/>
<glyph unicode="&#57346;" d="M434 152c-6 0-10 4-10 10 0 6 4 11 10 11 31 0 57 25 57 56l0 187c0 31-26 56-57 56l-356 0c-31 0-57-25-57-56 0-6-4-11-10-11-6 0-11 5-11 11 0 43 35 78 78 78l356 0c43 0 78-35 78-78l0-187c0-43-35-77-78-77z m-51-134c-3 0-7 1-11 1l-2 1-308 111c-37 11-62 46-62 87l0 186c0 38 25 80 58 80 5 0 9-1 14-3 77-27 303-104 305-105l1 0c42-20 64-49 64-86l0-203c0-39-25-69-59-69z m-6 22c24-4 44 17 44 47l0 203c0 28-17 50-51 66-12 4-230 79-305 105-21 7-44-25-44-57l0-186c0-32 19-58 48-67z m9 144c-1 0-2 0-3 0l-85 26c-6 2-9 8-7 14 1 5 7 8 13 7l85-26c6-2 9-8 7-13-1-5-6-8-10-8z m45 203l-149 0c-6 0-11 5-11 11 0 6 5 10 11 10l149 0c6 0 11-4 11-10 0-6-5-11-11-11z m-65-309c-1 0-2 0-4 1-2 0-219 74-265 89-44 13-51 58-49 80l0 165c0 6 5 11 11 11 6 0 10-5 10-11l0-166c0-3-3-47 34-59 47-15 264-89 266-89 6-2 9-8 7-14-2-4-6-7-10-7z"/>
<glyph unicode="&#57347;" d="M256 247c-58 0-105 60-105 133 0 73 47 133 105 133 58 0 105-60 105-133 0-73-47-133-105-133z m0 245c-46 0-84-50-84-112 0-61 38-112 84-112 46 0 84 51 84 112 0 62-38 112-84 112z m258-493l-516 0 2 12c21 136 129 235 256 235 127 0 235-99 256-235z m-491 21l466 0c-24 119-120 204-233 204-113 0-209-85-233-204z m246 133l-44 0-26 74c-2 6 1 12 7 14 5 1 12-1 13-7l21-59 29 0c6 0 10-5 10-11 0-6-4-11-10-11z m-66-154c0 0-1 0-1 0-6 1-10 7-9 12l28 155c1 6 7 10 13 8 5-1 9-6 8-12l-28-154c-1-6-5-9-11-9z m84 154l-44 0c-6 0-10 5-10 11 0 6 4 11 10 11l29 0 21 59c1 6 8 8 13 7 6-2 9-8 7-14z m22-154c-6 0-10 3-11 9l-28 154c-1 6 3 11 8 12 6 1 12-2 13-8l28-155c1-5-3-11-9-12 0 0-1 0-1 0z m-98 314c-4 0-7 2-9 6-37 80 14 136 16 139 4 4 11 4 15 0 5-4 5-10 1-15-2-2-43-49-13-115 3-6 0-12-5-14-2-1-3-1-5-1z"/>
<glyph unicode="&#57348;" d="M322 62c-4 0-9 1-13 2l-94 38c0 0-22 6-40 6-7 0-30-2-37-3l-12-1 0 138 5 4c1 0 26 17 66 25 6 1 13 0 19-2l118-46c10-3 17-10 21-19 4-9 4-20 1-29-6-14-20-24-35-24-4 0-9 1-13 3l-44 17c0 0-1-1-2-3-1-2-1-4-1-5l58-23 137 81c6 3 12 5 19 5 13 0 25-7 32-19 10-17 4-40-13-50l-153-90c-5-3-12-5-19-5z m-147 67c21 0 46-7 47-7l95-38c4-2 9-1 13 1l153 90c7 4 10 14 5 22-4 7-14 9-21 5l-146-86-70 28c-3 1-8 5-10 10-3 7-2 14 2 22 6 14 15 16 21 16 3 0 6-1 7-1l44-17c8-3 18 1 21 9 1 4 1 8 0 12-2 4-5 7-9 8l-118 46c-3 1-6 1-8 1-26-5-45-15-54-19l0-103c10 0 22 1 28 1z m-28-51l-147 0 0 175 147 0z m-126 21l105 0 0 133-105 0z m88 98c0-10-8-17-18-17-10 0-17 7-17 17 0 10 7 17 17 17 10 0 18-7 18-17z m236-35l-6 21c53 15 90 65 90 120 0 69-56 126-126 126-69 0-125-57-125-126 0-16 3-31 8-46l-19-7c-7 17-11 35-11 53 0 81 66 147 147 147 82 0 147-66 147-147 0-64-43-122-105-141z m-43 75l0 20c-12 0-24 4-31 9l5 14c7-5 18-9 29-9 15 0 24 9 24 20 0 11-8 18-23 25-21 8-33 17-33 35 0 17 12 30 30 33l0 20 13 0 0-19c12-1 21-4 27-8l-5-13c-5 2-13 7-26 7-16 0-22-9-22-18 0-10 8-16 26-23 21-9 31-19 31-37 0-17-11-32-32-35l0-21z"/>
<glyph unicode="&#57349;" d="M501 1l-490 0c-6 0-11 5-11 10l0 490c0 5 5 10 11 10 6 0 10-5 10-10l0-479 480 0c6 0 11-5 11-11 0-5-5-10-11-10z m-378 344c-4 0-8 2-9 6-3 5 0 12 5 14l63 26c5 2 11 0 14-6 2-5-1-11-6-14l-62-26c-2 0-3 0-5 0z m180 0c-2 0-5 0-7 2l-50 41c-5 4-5 11-1 15 3 5 10 5 15 2l50-42c4-3 5-10 1-15-2-2-5-3-8-3z m63-5c-3 0-6 1-8 4-4 4-3 11 1 15l65 55c4 4 11 4 15-1 3-4 3-11-2-15l-64-55c-2-2-4-3-7-3z m-243-213c-4 0-8 3-10 7-2 5 1 12 7 13l62 22c6 2 12-1 14-6 2-6-1-12-7-14l-62-22c-1 0-2 0-4 0z m218-10c-1 0-3 1-5 2l-88 49c-6 3-7 9-5 14 3 5 10 7 15 4l89-49c5-3 7-9 4-14-2-4-6-6-10-6z m46 4c-2 0-4 0-6 1-5 4-6 10-3 15l46 68c4 5 10 7 15 3 5-3 6-10 3-15l-46-68c-2-3-6-4-9-4z m-298 175c-26 0-46 20-46 46 0 25 20 46 46 46 25 0 45-21 45-46 0-26-20-46-45-46z m0 70c-14 0-25-11-25-24 0-14 11-25 25-25 13 0 24 11 24 25 0 13-11 24-24 24z m129-15c-26 0-46 20-46 45 0 26 20 46 46 46 25 0 45-20 45-46 0-25-20-45-45-45z m0 70c-14 0-25-11-25-25 0-13 11-24 25-24 13 0 24 11 24 24 0 14-11 25-24 25z m116-136c-25 0-46 21-46 46 0 25 21 46 46 46 26 0 46-21 46-46 0-25-20-46-46-46z m0 70c-13 0-24-11-24-24 0-14 11-25 24-25 14 0 25 11 25 25 0 13-11 24-25 24z m121 31c-25 0-46 20-46 45 0 26 21 46 46 46 25 0 46-20 46-46 0-25-21-45-46-45z m0 70c-13 0-24-11-24-25 0-13 11-24 24-24 14 0 25 11 25 24 0 14-11 25-25 25z m-10-267c-26 0-46 20-46 46 0 25 20 45 46 45 25 0 45-20 45-45 0-26-20-46-45-46z m0 70c-14 0-25-11-25-24 0-14 11-25 25-25 13 0 24 11 24 25 0 13-11 24-24 24z m-79-202c-25 0-46 21-46 46 0 25 21 46 46 46 25 0 46-21 46-46 0-25-21-46-46-46z m0 70c-13 0-24-11-24-24 0-14 11-25 24-25 14 0 25 11 25 25 0 13-11 24-25 24z m-148 4c-26 0-46 21-46 46 0 25 20 46 46 46 25 0 45-21 45-46 0-25-20-46-45-46z m0 71c-14 0-25-11-25-25 0-13 11-24 25-24 13 0 24 11 24 24 0 14-11 25-24 25z m-129-124c-26 0-46 21-46 46 0 25 20 46 46 46 25 0 45-21 45-46 0-25-20-46-45-46z m0 71c-14 0-25-11-25-25 0-13 11-24 25-24 13 0 24 11 24 24 0 14-11 25-24 25z"/>
<glyph unicode="&#57350;" d="M276 0l-40 0c-6 0-11 5-11 11l0 17c-90 12-155 70-155 142 0 6 5 11 11 11l95 0c6 0 11-5 11-11 0-4 13-17 38-23l0 53c-90 11-155 70-155 142 0 72 65 130 155 142l0 17c0 6 5 11 11 11l40 0c6 0 11-5 11-11l0-17c89-11 153-69 155-140 0-1 0-2 0-2 0-6-5-11-11-11 0 0 0 0 0 0l-95 0c-6 0-11 5-11 11 0 4-13 17-38 23l0-53c90-11 155-69 155-142 0-72-65-130-155-142l0-17c0-6-5-11-11-11z m-30 21l20 0 0 17c0 5 4 10 9 11 85 7 145 58 145 121 0 64-61 115-145 122-5 1-9 5-9 11l0 75c0 3 1 6 3 8 3 2 6 3 9 3 34-5 58-21 66-37l76 0c-7 59-65 105-145 111-5 1-9 6-9 11l0 17-20 0 0-17c0-5-4-10-9-11-84-7-145-58-145-121 0-64 61-115 145-122 5-1 9-5 9-11l0-75c0-3-1-6-3-8-3-2-6-3-9-3-34 5-58 21-66 37l-76 0c7-59 65-105 145-111 5-1 9-6 9-11l0-17z m30 102c-2 0-5 1-7 3-2 2-3 5-3 8l0 73c0 3 1 6 3 8 3 2 6 3 9 2 42-6 69-29 69-47 0-18-27-41-69-47-1 0-1 0-2 0z m11 71l0-47c25 6 38 19 38 23 0 4-13 17-38 24z m-51 100c-1 0-1 0-2 1-42 6-69 29-69 47 0 18 27 41 69 47 3 0 6-1 9-3 2-2 3-5 3-8l0-73c0-3-1-6-3-8-2-2-5-3-7-3z m-11 71c-25-6-38-19-38-23 0-4 13-17 38-24z"/>
<glyph unicode="&#57351;" d="M393 1c-66 0-120 54-120 120 0 67 54 121 120 121 65 0 119-54 119-121 0-66-54-120-119-120z m0 220c-55 0-99-45-99-100 0-55 44-99 99-99 54 0 98 44 98 99 0 55-44 100-98 100z m-274 49c-65 0-119 54-119 121 0 66 54 120 119 120 66 0 120-54 120-120 0-67-54-121-120-121z m0 220c-54 0-98-44-98-99 0-55 44-100 98-100 55 0 99 45 99 100 0 55-44 99-99 99z m-97-482c-3 0-6 1-8 3-4 4-4 11 0 15l469 475c4 4 11 4 15 0 4-4 4-11 0-15l-469-475c-2-2-5-3-7-3z"/>
</font>
</defs>
</svg>
